<mxfile host="65bd71144e">
    <diagram id="R-sdXesvqGWGLOIP16t0" name="Page-1">
        <mxGraphModel dx="777" dy="407" grid="1" gridSize="10" guides="1" tooltips="1" connect="1" arrows="1" fold="1" page="1" pageScale="1" pageWidth="850" pageHeight="1100" math="0" shadow="0">
            <root>
                <mxCell id="0"/>
                <mxCell id="1" parent="0"/>
                <mxCell id="2" value="" style="rounded=0;whiteSpace=wrap;html=1;fillColor=#f9f7ed;strokeColor=#36393d;" parent="1" vertex="1">
                    <mxGeometry x="170" y="100" width="400" height="310" as="geometry"/>
                </mxCell>
                <mxCell id="3" value="&lt;h1&gt;病人模块&lt;/h1&gt;" style="text;html=1;align=center;verticalAlign=middle;resizable=0;points=[];autosize=1;strokeColor=none;fillColor=none;" parent="1" vertex="1">
                    <mxGeometry x="50" y="25" width="120" height="70" as="geometry"/>
                </mxCell>
                <mxCell id="6" value="&lt;font style=&quot;font-size: 23px;&quot;&gt;获取流程单&lt;/font&gt;" style="text;html=1;align=center;verticalAlign=middle;resizable=0;points=[];autosize=1;strokeColor=none;fillColor=none;labelBorderColor=none;fontStyle=0;fontColor=#030303;" parent="1" vertex="1">
                    <mxGeometry x="300" y="110" width="140" height="40" as="geometry"/>
                </mxCell>
                <mxCell id="11" value="" style="shape=stencil(fZbdcgIhDIWfZm8zQAg/17Z9j85U606tdqz9e/tmZ0c0uJ47xP0I5JwEBl59bp8/1kNwn6fj4W39M76ctgM/DCGM++36OJ50NPDjwKvN4bh+PR6+9i/z74/n6ctp9H74nlb4nbmSKZeJCu5vngmZ6jzzNAO7cX8FVKEsBuBKrgKg9oAE8gkCbLeUhEoEQKSUDZDLeWYRKIl8MEDRmHwfyBrBG6Amyu4+kDxxMoB3jhwgYu7TVAsVkFcWCs4CTBEoF4RctKeOxHIf8IXYpikHikAIf+MNUW94AGSSaoAoFIE3AlOyeWU+p2E5S9yfQZcQILVuQOwZdJNoS9Ls3wA5u2XZTIHECqeJ9kDpSaauRiNVcAY1QhdBzeLBli5WazpkSsBLV25uRaqWRyFawTQzRRIQYirJzq5atkBqLfouwqUxLBepthWb10vrWZY6UOAeyKCCtDV625mm9gmUC4Wc3VLJMMIE1BsA2FW9JraVlQB7n3c9oMKhCLEvIM1zBPZ25/umNQ1tVEC2G+fFCC8g398O2hNQuQlVu752DBfA+q0ptnqO5JFmeuIuo9DY7KjY71UxdJV4EntifPWorW++R/dC4t7V3DlIB5cHx2bc7eb3yvX//QNFp+bHDT/+Aw==);lineShape=1;labelBorderColor=none;fontSize=23;fontColor=#030303;" parent="1" vertex="1">
                    <mxGeometry x="428.8679608424759" y="364.8753124585194" width="4.672539772115215" height="4.665236216357243" as="geometry"/>
                </mxCell>
                <mxCell id="32" value="是否有该流程单" style="text;html=1;align=center;verticalAlign=middle;resizable=0;points=[];autosize=1;strokeColor=none;fillColor=none;fontSize=23;fontColor=#030303;" parent="1" vertex="1">
                    <mxGeometry x="280" y="180" width="180" height="40" as="geometry"/>
                </mxCell>
                <mxCell id="33" value="T" style="text;html=1;align=center;verticalAlign=middle;resizable=0;points=[];autosize=1;strokeColor=none;fillColor=none;fontSize=23;fontColor=#030303;" parent="1" vertex="1">
                    <mxGeometry x="190" y="190" width="40" height="40" as="geometry"/>
                </mxCell>
                <mxCell id="34" value="F" style="text;html=1;align=center;verticalAlign=middle;resizable=0;points=[];autosize=1;strokeColor=none;fillColor=none;fontSize=23;fontColor=#030303;" parent="1" vertex="1">
                    <mxGeometry x="510" y="190" width="40" height="40" as="geometry"/>
                </mxCell>
                <mxCell id="35" value="显示流程单" style="text;html=1;align=center;verticalAlign=middle;resizable=0;points=[];autosize=1;strokeColor=none;fillColor=none;fontSize=23;fontColor=#030303;" parent="1" vertex="1">
                    <mxGeometry x="190" y="270" width="140" height="40" as="geometry"/>
                </mxCell>
                <mxCell id="36" value="结束" style="text;html=1;align=center;verticalAlign=middle;resizable=0;points=[];autosize=1;strokeColor=none;fillColor=none;fontSize=23;fontColor=#030303;" parent="1" vertex="1">
                    <mxGeometry x="330" y="350" width="70" height="40" as="geometry"/>
                </mxCell>
                <mxCell id="48" style="edgeStyle=none;html=1;exitX=0;exitY=0.5;exitDx=0;exitDy=0;exitPerimeter=0;entryX=0.493;entryY=0.6;entryDx=0;entryDy=0;entryPerimeter=0;strokeColor=#030303;fontSize=23;fontColor=#030303;endArrow=none;endFill=0;" parent="1" source="38" target="39" edge="1">
                    <mxGeometry relative="1" as="geometry"/>
                </mxCell>
                <mxCell id="49" style="edgeStyle=none;html=1;exitX=1;exitY=0.5;exitDx=0;exitDy=0;exitPerimeter=0;entryX=0.485;entryY=0.5;entryDx=0;entryDy=0;entryPerimeter=0;strokeColor=#030303;fontSize=23;fontColor=#030303;endArrow=none;endFill=0;" parent="1" source="38" target="39" edge="1">
                    <mxGeometry relative="1" as="geometry"/>
                </mxCell>
                <mxCell id="38" value="" style="line;strokeWidth=2;html=1;labelBorderColor=none;fontSize=23;fillColor=default;strokeColor=#030202;" parent="1" vertex="1">
                    <mxGeometry x="170" y="160" width="400" height="10" as="geometry"/>
                </mxCell>
                <mxCell id="39" value="" style="line;strokeWidth=2;html=1;labelBorderColor=none;fontSize=23;fillColor=default;strokeColor=#030202;" parent="1" vertex="1">
                    <mxGeometry x="170" y="240" width="400" height="10" as="geometry"/>
                </mxCell>
                <mxCell id="56" value="" style="line;strokeWidth=2;html=1;labelBorderColor=none;fontSize=23;fillColor=default;strokeColor=#030202;" parent="1" vertex="1">
                    <mxGeometry x="170" y="320" width="400" height="10" as="geometry"/>
                </mxCell>
                <mxCell id="58" value="" style="line;strokeWidth=2;html=1;labelBorderColor=none;fontSize=23;fillColor=default;strokeColor=#030202;direction=south;" parent="1" vertex="1">
                    <mxGeometry x="360" y="243" width="10" height="84" as="geometry"/>
                </mxCell>
                <mxCell id="60" value="" style="rounded=0;whiteSpace=wrap;html=1;fillColor=#f9f7ed;strokeColor=#36393d;" parent="1" vertex="1">
                    <mxGeometry x="690" y="100" width="540" height="540" as="geometry"/>
                </mxCell>
                <mxCell id="61" value="&lt;span style=&quot;font-size: 23px;&quot;&gt;查询流程&lt;/span&gt;" style="text;html=1;align=center;verticalAlign=middle;resizable=0;points=[];autosize=1;strokeColor=none;fillColor=none;labelBorderColor=none;fontStyle=0;fontColor=#030303;" parent="1" vertex="1">
                    <mxGeometry x="910" y="110" width="120" height="40" as="geometry"/>
                </mxCell>
                <mxCell id="62" value="" style="shape=stencil(fZbdcgIhDIWfZm8zQAg/17Z9j85U606tdqz9e/tmZ0c0uJ47xP0I5JwEBl59bp8/1kNwn6fj4W39M76ctgM/DCGM++36OJ50NPDjwKvN4bh+PR6+9i/z74/n6ctp9H74nlb4nbmSKZeJCu5vngmZ6jzzNAO7cX8FVKEsBuBKrgKg9oAE8gkCbLeUhEoEQKSUDZDLeWYRKIl8MEDRmHwfyBrBG6Amyu4+kDxxMoB3jhwgYu7TVAsVkFcWCs4CTBEoF4RctKeOxHIf8IXYpikHikAIf+MNUW94AGSSaoAoFIE3AlOyeWU+p2E5S9yfQZcQILVuQOwZdJNoS9Ls3wA5u2XZTIHECqeJ9kDpSaauRiNVcAY1QhdBzeLBli5WazpkSsBLV25uRaqWRyFawTQzRRIQYirJzq5atkBqLfouwqUxLBepthWb10vrWZY6UOAeyKCCtDV625mm9gmUC4Wc3VLJMMIE1BsA2FW9JraVlQB7n3c9oMKhCLEvIM1zBPZ25/umNQ1tVEC2G+fFCC8g398O2hNQuQlVu752DBfA+q0ptnqO5JFmeuIuo9DY7KjY71UxdJV4EntifPWorW++R/dC4t7V3DlIB5cHx2bc7eb3yvX//QNFp+bHDT/+Aw==);lineShape=1;labelBorderColor=none;fontSize=23;fontColor=#030303;" parent="1" vertex="1">
                    <mxGeometry x="948.8679608424759" y="364.8753124585194" width="4.672539772115215" height="4.665236216357243" as="geometry"/>
                </mxCell>
                <mxCell id="63" value="该流程存在么" style="text;html=1;align=center;verticalAlign=middle;resizable=0;points=[];autosize=1;strokeColor=none;fillColor=none;fontSize=23;fontColor=#030303;" parent="1" vertex="1">
                    <mxGeometry x="990" y="180" width="160" height="40" as="geometry"/>
                </mxCell>
                <mxCell id="64" value="T" style="text;html=1;align=center;verticalAlign=middle;resizable=0;points=[];autosize=1;strokeColor=none;fillColor=none;fontSize=23;fontColor=#030303;" parent="1" vertex="1">
                    <mxGeometry x="710" y="190" width="40" height="40" as="geometry"/>
                </mxCell>
                <mxCell id="65" value="F" style="text;html=1;align=center;verticalAlign=middle;resizable=0;points=[];autosize=1;strokeColor=none;fillColor=none;fontSize=23;fontColor=#030303;" parent="1" vertex="1">
                    <mxGeometry x="1180" y="200" width="40" height="40" as="geometry"/>
                </mxCell>
                <mxCell id="66" value="查询目标项目" style="text;html=1;align=center;verticalAlign=middle;resizable=0;points=[];autosize=1;strokeColor=none;fillColor=none;fontSize=23;fontColor=#030303;" parent="1" vertex="1">
                    <mxGeometry x="830" y="265" width="160" height="40" as="geometry"/>
                </mxCell>
                <mxCell id="67" value="该项目存在么" style="text;html=1;align=center;verticalAlign=middle;resizable=0;points=[];autosize=1;strokeColor=none;fillColor=none;fontSize=23;fontColor=#030303;" parent="1" vertex="1">
                    <mxGeometry x="890" y="340" width="160" height="40" as="geometry"/>
                </mxCell>
                <mxCell id="68" style="edgeStyle=none;html=1;exitX=0;exitY=0.5;exitDx=0;exitDy=0;exitPerimeter=0;entryX=0.817;entryY=0.4;entryDx=0;entryDy=0;entryPerimeter=0;strokeColor=#030303;fontSize=23;fontColor=#030303;endArrow=none;endFill=0;" parent="1" source="70" target="71" edge="1">
                    <mxGeometry relative="1" as="geometry"/>
                </mxCell>
                <mxCell id="69" style="edgeStyle=none;html=1;exitX=1;exitY=0.5;exitDx=0;exitDy=0;exitPerimeter=0;entryX=0.811;entryY=0.8;entryDx=0;entryDy=0;entryPerimeter=0;strokeColor=#030303;fontSize=23;fontColor=#030303;endArrow=none;endFill=0;" parent="1" source="70" target="71" edge="1">
                    <mxGeometry relative="1" as="geometry"/>
                </mxCell>
                <mxCell id="70" value="" style="line;strokeWidth=2;html=1;labelBorderColor=none;fontSize=23;fillColor=default;strokeColor=#030202;" parent="1" vertex="1">
                    <mxGeometry x="690" y="160" width="540" height="10" as="geometry"/>
                </mxCell>
                <mxCell id="71" value="" style="line;strokeWidth=2;html=1;labelBorderColor=none;fontSize=23;fillColor=default;strokeColor=#030202;" parent="1" vertex="1">
                    <mxGeometry x="690" y="240" width="540" height="10" as="geometry"/>
                </mxCell>
                <mxCell id="77" style="edgeStyle=none;html=1;exitX=0;exitY=0.5;exitDx=0;exitDy=0;exitPerimeter=0;strokeColor=#030303;fontSize=23;fontColor=#030303;endArrow=none;endFill=0;entryX=0.75;entryY=0.5;entryDx=0;entryDy=0;entryPerimeter=0;" parent="1" source="72" target="76" edge="1">
                    <mxGeometry relative="1" as="geometry"/>
                </mxCell>
                <mxCell id="72" value="" style="line;strokeWidth=2;html=1;labelBorderColor=none;fontSize=23;fillColor=default;strokeColor=#030202;" parent="1" vertex="1">
                    <mxGeometry x="690" y="320" width="440" height="10" as="geometry"/>
                </mxCell>
                <mxCell id="78" style="edgeStyle=none;html=1;exitX=0.25;exitY=0.5;exitDx=0;exitDy=0;exitPerimeter=0;entryX=0.75;entryY=0.5;entryDx=0;entryDy=0;entryPerimeter=0;strokeColor=#030303;fontSize=23;fontColor=#030303;endArrow=none;endFill=0;" parent="1" source="73" target="76" edge="1">
                    <mxGeometry relative="1" as="geometry"/>
                </mxCell>
                <mxCell id="73" value="" style="line;strokeWidth=2;html=1;labelBorderColor=none;fontSize=23;fillColor=default;strokeColor=#030202;direction=south;" parent="1" vertex="1">
                    <mxGeometry x="1125" y="243" width="10" height="332" as="geometry"/>
                </mxCell>
                <mxCell id="85" style="edgeStyle=none;html=1;exitX=0;exitY=0.5;exitDx=0;exitDy=0;exitPerimeter=0;entryX=0.621;entryY=0.6;entryDx=0;entryDy=0;entryPerimeter=0;strokeColor=#030303;fontSize=23;fontColor=#030303;endArrow=none;endFill=0;" parent="1" source="76" target="83" edge="1">
                    <mxGeometry relative="1" as="geometry"/>
                </mxCell>
                <mxCell id="76" value="" style="line;strokeWidth=2;html=1;labelBorderColor=none;fontSize=23;fillColor=default;strokeColor=#030202;" parent="1" vertex="1">
                    <mxGeometry x="690" y="401.5" width="440" height="10" as="geometry"/>
                </mxCell>
                <mxCell id="79" value="F" style="text;html=1;align=center;verticalAlign=middle;resizable=0;points=[];autosize=1;strokeColor=none;fillColor=none;fontSize=23;fontColor=#030303;" parent="1" vertex="1">
                    <mxGeometry x="1080" y="361.5" width="40" height="40" as="geometry"/>
                </mxCell>
                <mxCell id="80" value="T" style="text;html=1;align=center;verticalAlign=middle;resizable=0;points=[];autosize=1;strokeColor=none;fillColor=none;fontSize=23;fontColor=#030303;" parent="1" vertex="1">
                    <mxGeometry x="730" y="350" width="40" height="40" as="geometry"/>
                </mxCell>
                <mxCell id="84" style="edgeStyle=none;html=1;exitX=0;exitY=0.5;exitDx=0;exitDy=0;exitPerimeter=0;entryX=0.621;entryY=0.8;entryDx=0;entryDy=0;entryPerimeter=0;strokeColor=#030303;fontSize=23;fontColor=#030303;endArrow=none;endFill=0;" parent="1" source="81" target="83" edge="1">
                    <mxGeometry relative="1" as="geometry"/>
                </mxCell>
                <mxCell id="81" value="" style="line;strokeWidth=2;html=1;labelBorderColor=none;fontSize=23;fillColor=default;strokeColor=#030202;direction=south;" parent="1" vertex="1">
                    <mxGeometry x="1016" y="407" width="10" height="167" as="geometry"/>
                </mxCell>
                <mxCell id="82" value="该项目开始了吗" style="text;html=1;align=center;verticalAlign=middle;resizable=0;points=[];autosize=1;strokeColor=none;fillColor=none;fontSize=23;fontColor=#030303;" parent="1" vertex="1">
                    <mxGeometry x="790" y="411.5" width="180" height="40" as="geometry"/>
                </mxCell>
                <mxCell id="83" value="" style="line;strokeWidth=2;html=1;labelBorderColor=none;fontSize=23;fillColor=default;strokeColor=#030202;" parent="1" vertex="1">
                    <mxGeometry x="690" y="470" width="330" height="10" as="geometry"/>
                </mxCell>
                <mxCell id="86" value="" style="line;strokeWidth=2;html=1;labelBorderColor=none;fontSize=23;fillColor=default;strokeColor=#030202;direction=south;" parent="1" vertex="1">
                    <mxGeometry x="892" y="473" width="10" height="103" as="geometry"/>
                </mxCell>
                <mxCell id="87" value="F" style="text;html=1;align=center;verticalAlign=middle;resizable=0;points=[];autosize=1;strokeColor=none;fillColor=none;fontSize=23;fontColor=#030303;" parent="1" vertex="1">
                    <mxGeometry x="970" y="440" width="40" height="40" as="geometry"/>
                </mxCell>
                <mxCell id="88" value="T" style="text;html=1;align=center;verticalAlign=middle;resizable=0;points=[];autosize=1;strokeColor=none;fillColor=none;fontSize=23;fontColor=#030303;" parent="1" vertex="1">
                    <mxGeometry x="720" y="430" width="40" height="40" as="geometry"/>
                </mxCell>
                <mxCell id="90" value="" style="line;strokeWidth=2;html=1;labelBorderColor=none;fontSize=23;fillColor=default;strokeColor=#030202;" parent="1" vertex="1">
                    <mxGeometry x="690" y="570" width="540" height="10" as="geometry"/>
                </mxCell>
                <mxCell id="91" value="确认项目&lt;br&gt;开始" style="text;html=1;align=center;verticalAlign=middle;resizable=0;points=[];autosize=1;strokeColor=none;fillColor=none;fontSize=23;fontColor=#030303;" parent="1" vertex="1">
                    <mxGeometry x="896" y="489.5" width="120" height="70" as="geometry"/>
                </mxCell>
                <mxCell id="92" value="结束" style="text;html=1;align=center;verticalAlign=middle;resizable=0;points=[];autosize=1;strokeColor=none;fillColor=none;fontSize=23;fontColor=#030303;" parent="1" vertex="1">
                    <mxGeometry x="910" y="590" width="70" height="40" as="geometry"/>
                </mxCell>
                <mxCell id="93" value="不做处理" style="text;html=1;align=center;verticalAlign=middle;resizable=0;points=[];autosize=1;strokeColor=none;fillColor=none;fontSize=23;fontColor=#030303;" parent="1" vertex="1">
                    <mxGeometry x="1120" y="407" width="120" height="40" as="geometry"/>
                </mxCell>
                <mxCell id="94" value="不做处理" style="text;html=1;align=center;verticalAlign=middle;resizable=0;points=[];autosize=1;strokeColor=none;fillColor=none;fontSize=23;fontColor=#030303;" parent="1" vertex="1">
                    <mxGeometry x="1015" y="473" width="120" height="40" as="geometry"/>
                </mxCell>
                <mxCell id="95" value="不做处理" style="text;html=1;align=center;verticalAlign=middle;resizable=0;points=[];autosize=1;strokeColor=none;fillColor=none;fontSize=23;fontColor=#030303;" parent="1" vertex="1">
                    <mxGeometry x="732" y="504.5" width="120" height="40" as="geometry"/>
                </mxCell>
                <mxCell id="96" value="不做处理" style="text;html=1;align=center;verticalAlign=middle;resizable=0;points=[];autosize=1;strokeColor=none;fillColor=none;fontSize=23;fontColor=#030303;" parent="1" vertex="1">
                    <mxGeometry x="390" y="265" width="120" height="40" as="geometry"/>
                </mxCell>
                <mxCell id="97" value="" style="rounded=0;whiteSpace=wrap;html=1;fillColor=#f9f7ed;strokeColor=#36393d;" parent="1" vertex="1">
                    <mxGeometry x="1360" y="100" width="540" height="540" as="geometry"/>
                </mxCell>
                <mxCell id="98" value="&lt;span style=&quot;font-size: 23px;&quot;&gt;查询流程&lt;/span&gt;" style="text;html=1;align=center;verticalAlign=middle;resizable=0;points=[];autosize=1;strokeColor=none;fillColor=none;labelBorderColor=none;fontStyle=0;fontColor=#030303;" parent="1" vertex="1">
                    <mxGeometry x="1580" y="110" width="120" height="40" as="geometry"/>
                </mxCell>
                <mxCell id="99" value="" style="shape=stencil(fZbdcgIhDIWfZm8zQAg/17Z9j85U606tdqz9e/tmZ0c0uJ47xP0I5JwEBl59bp8/1kNwn6fj4W39M76ctgM/DCGM++36OJ50NPDjwKvN4bh+PR6+9i/z74/n6ctp9H74nlb4nbmSKZeJCu5vngmZ6jzzNAO7cX8FVKEsBuBKrgKg9oAE8gkCbLeUhEoEQKSUDZDLeWYRKIl8MEDRmHwfyBrBG6Amyu4+kDxxMoB3jhwgYu7TVAsVkFcWCs4CTBEoF4RctKeOxHIf8IXYpikHikAIf+MNUW94AGSSaoAoFIE3AlOyeWU+p2E5S9yfQZcQILVuQOwZdJNoS9Ls3wA5u2XZTIHECqeJ9kDpSaauRiNVcAY1QhdBzeLBli5WazpkSsBLV25uRaqWRyFawTQzRRIQYirJzq5atkBqLfouwqUxLBepthWb10vrWZY6UOAeyKCCtDV625mm9gmUC4Wc3VLJMMIE1BsA2FW9JraVlQB7n3c9oMKhCLEvIM1zBPZ25/umNQ1tVEC2G+fFCC8g398O2hNQuQlVu752DBfA+q0ptnqO5JFmeuIuo9DY7KjY71UxdJV4EntifPWorW++R/dC4t7V3DlIB5cHx2bc7eb3yvX//QNFp+bHDT/+Aw==);lineShape=1;labelBorderColor=none;fontSize=23;fontColor=#030303;" parent="1" vertex="1">
                    <mxGeometry x="1618.867960842476" y="364.8753124585194" width="4.672539772115215" height="4.665236216357243" as="geometry"/>
                </mxCell>
                <mxCell id="100" value="该流程存在么" style="text;html=1;align=center;verticalAlign=middle;resizable=0;points=[];autosize=1;strokeColor=none;fillColor=none;fontSize=23;fontColor=#030303;" parent="1" vertex="1">
                    <mxGeometry x="1660" y="180" width="160" height="40" as="geometry"/>
                </mxCell>
                <mxCell id="101" value="T" style="text;html=1;align=center;verticalAlign=middle;resizable=0;points=[];autosize=1;strokeColor=none;fillColor=none;fontSize=23;fontColor=#030303;" parent="1" vertex="1">
                    <mxGeometry x="1380" y="190" width="40" height="40" as="geometry"/>
                </mxCell>
                <mxCell id="102" value="F" style="text;html=1;align=center;verticalAlign=middle;resizable=0;points=[];autosize=1;strokeColor=none;fillColor=none;fontSize=23;fontColor=#030303;" parent="1" vertex="1">
                    <mxGeometry x="1850" y="200" width="40" height="40" as="geometry"/>
                </mxCell>
                <mxCell id="103" value="查询目标项目" style="text;html=1;align=center;verticalAlign=middle;resizable=0;points=[];autosize=1;strokeColor=none;fillColor=none;fontSize=23;fontColor=#030303;" parent="1" vertex="1">
                    <mxGeometry x="1500" y="265" width="160" height="40" as="geometry"/>
                </mxCell>
                <mxCell id="104" value="该项目存在么" style="text;html=1;align=center;verticalAlign=middle;resizable=0;points=[];autosize=1;strokeColor=none;fillColor=none;fontSize=23;fontColor=#030303;" parent="1" vertex="1">
                    <mxGeometry x="1560" y="340" width="160" height="40" as="geometry"/>
                </mxCell>
                <mxCell id="105" style="edgeStyle=none;html=1;exitX=0;exitY=0.5;exitDx=0;exitDy=0;exitPerimeter=0;entryX=0.817;entryY=0.4;entryDx=0;entryDy=0;entryPerimeter=0;strokeColor=#030303;fontSize=23;fontColor=#030303;endArrow=none;endFill=0;" parent="1" source="107" target="108" edge="1">
                    <mxGeometry relative="1" as="geometry"/>
                </mxCell>
                <mxCell id="106" style="edgeStyle=none;html=1;exitX=1;exitY=0.5;exitDx=0;exitDy=0;exitPerimeter=0;entryX=0.811;entryY=0.8;entryDx=0;entryDy=0;entryPerimeter=0;strokeColor=#030303;fontSize=23;fontColor=#030303;endArrow=none;endFill=0;" parent="1" source="107" target="108" edge="1">
                    <mxGeometry relative="1" as="geometry"/>
                </mxCell>
                <mxCell id="107" value="" style="line;strokeWidth=2;html=1;labelBorderColor=none;fontSize=23;fillColor=default;strokeColor=#030202;" parent="1" vertex="1">
                    <mxGeometry x="1360" y="160" width="540" height="10" as="geometry"/>
                </mxCell>
                <mxCell id="108" value="" style="line;strokeWidth=2;html=1;labelBorderColor=none;fontSize=23;fillColor=default;strokeColor=#030202;" parent="1" vertex="1">
                    <mxGeometry x="1360" y="240" width="540" height="10" as="geometry"/>
                </mxCell>
                <mxCell id="109" style="edgeStyle=none;html=1;exitX=0;exitY=0.5;exitDx=0;exitDy=0;exitPerimeter=0;strokeColor=#030303;fontSize=23;fontColor=#030303;endArrow=none;endFill=0;entryX=0.75;entryY=0.5;entryDx=0;entryDy=0;entryPerimeter=0;" parent="1" source="110" target="114" edge="1">
                    <mxGeometry relative="1" as="geometry"/>
                </mxCell>
                <mxCell id="110" value="" style="line;strokeWidth=2;html=1;labelBorderColor=none;fontSize=23;fillColor=default;strokeColor=#030202;" parent="1" vertex="1">
                    <mxGeometry x="1360" y="320" width="440" height="10" as="geometry"/>
                </mxCell>
                <mxCell id="111" style="edgeStyle=none;html=1;exitX=0.25;exitY=0.5;exitDx=0;exitDy=0;exitPerimeter=0;entryX=0.75;entryY=0.5;entryDx=0;entryDy=0;entryPerimeter=0;strokeColor=#030303;fontSize=23;fontColor=#030303;endArrow=none;endFill=0;" parent="1" source="112" target="114" edge="1">
                    <mxGeometry relative="1" as="geometry"/>
                </mxCell>
                <mxCell id="112" value="" style="line;strokeWidth=2;html=1;labelBorderColor=none;fontSize=23;fillColor=default;strokeColor=#030202;direction=south;" parent="1" vertex="1">
                    <mxGeometry x="1795" y="243" width="10" height="332" as="geometry"/>
                </mxCell>
                <mxCell id="113" style="edgeStyle=none;html=1;exitX=0;exitY=0.5;exitDx=0;exitDy=0;exitPerimeter=0;entryX=0.621;entryY=0.6;entryDx=0;entryDy=0;entryPerimeter=0;strokeColor=#030303;fontSize=23;fontColor=#030303;endArrow=none;endFill=0;" parent="1" source="114" target="120" edge="1">
                    <mxGeometry relative="1" as="geometry"/>
                </mxCell>
                <mxCell id="114" value="" style="line;strokeWidth=2;html=1;labelBorderColor=none;fontSize=23;fillColor=default;strokeColor=#030202;" parent="1" vertex="1">
                    <mxGeometry x="1360" y="401.5" width="440" height="10" as="geometry"/>
                </mxCell>
                <mxCell id="115" value="F" style="text;html=1;align=center;verticalAlign=middle;resizable=0;points=[];autosize=1;strokeColor=none;fillColor=none;fontSize=23;fontColor=#030303;" parent="1" vertex="1">
                    <mxGeometry x="1750" y="361.5" width="40" height="40" as="geometry"/>
                </mxCell>
                <mxCell id="116" value="T" style="text;html=1;align=center;verticalAlign=middle;resizable=0;points=[];autosize=1;strokeColor=none;fillColor=none;fontSize=23;fontColor=#030303;" parent="1" vertex="1">
                    <mxGeometry x="1400" y="350" width="40" height="40" as="geometry"/>
                </mxCell>
                <mxCell id="117" style="edgeStyle=none;html=1;exitX=0;exitY=0.5;exitDx=0;exitDy=0;exitPerimeter=0;entryX=0.621;entryY=0.8;entryDx=0;entryDy=0;entryPerimeter=0;strokeColor=#030303;fontSize=23;fontColor=#030303;endArrow=none;endFill=0;" parent="1" source="118" target="120" edge="1">
                    <mxGeometry relative="1" as="geometry"/>
                </mxCell>
                <mxCell id="118" value="" style="line;strokeWidth=2;html=1;labelBorderColor=none;fontSize=23;fillColor=default;strokeColor=#030202;direction=south;" parent="1" vertex="1">
                    <mxGeometry x="1686" y="407" width="10" height="167" as="geometry"/>
                </mxCell>
                <mxCell id="119" value="该项目结束了吗" style="text;html=1;align=center;verticalAlign=middle;resizable=0;points=[];autosize=1;strokeColor=none;fillColor=none;fontSize=23;fontColor=#030303;" parent="1" vertex="1">
                    <mxGeometry x="1460" y="411.5" width="180" height="40" as="geometry"/>
                </mxCell>
                <mxCell id="120" value="" style="line;strokeWidth=2;html=1;labelBorderColor=none;fontSize=23;fillColor=default;strokeColor=#030202;" parent="1" vertex="1">
                    <mxGeometry x="1360" y="470" width="330" height="10" as="geometry"/>
                </mxCell>
                <mxCell id="121" value="" style="line;strokeWidth=2;html=1;labelBorderColor=none;fontSize=23;fillColor=default;strokeColor=#030202;direction=south;" parent="1" vertex="1">
                    <mxGeometry x="1562" y="473" width="10" height="103" as="geometry"/>
                </mxCell>
                <mxCell id="122" value="F" style="text;html=1;align=center;verticalAlign=middle;resizable=0;points=[];autosize=1;strokeColor=none;fillColor=none;fontSize=23;fontColor=#030303;" parent="1" vertex="1">
                    <mxGeometry x="1640" y="440" width="40" height="40" as="geometry"/>
                </mxCell>
                <mxCell id="123" value="T" style="text;html=1;align=center;verticalAlign=middle;resizable=0;points=[];autosize=1;strokeColor=none;fillColor=none;fontSize=23;fontColor=#030303;" parent="1" vertex="1">
                    <mxGeometry x="1390" y="430" width="40" height="40" as="geometry"/>
                </mxCell>
                <mxCell id="124" value="" style="line;strokeWidth=2;html=1;labelBorderColor=none;fontSize=23;fillColor=default;strokeColor=#030202;" parent="1" vertex="1">
                    <mxGeometry x="1360" y="570" width="540" height="10" as="geometry"/>
                </mxCell>
                <mxCell id="125" value="确认项目结束&lt;span style=&quot;color: rgba(0, 0, 0, 0); font-family: monospace; font-size: 0px; text-align: start;&quot;&gt;%3CmxGraphModel%3E%3Croot%3E%3CmxCell%20id%3D%220%22%2F%3E%3CmxCell%20id%3D%221%22%20parent%3D%220%22%2F%3E%3CmxCell%20id%3D%222%22%20value%3D%22%22%20style%3D%22rounded%3D0%3BwhiteSpace%3Dwrap%3Bhtml%3D1%3BfillColor%3D%23f9f7ed%3BstrokeColor%3D%2336393d%3B%22%20vertex%3D%221%22%20parent%3D%221%22%3E%3CmxGeometry%20x%3D%22690%22%20y%3D%22100%22%20width%3D%22540%22%20height%3D%22540%22%20as%3D%22geometry%22%2F%3E%3C%2FmxCell%3E%3CmxCell%20id%3D%223%22%20value%3D%22%26lt%3Bspan%20style%3D%26quot%3Bfont-size%3A%2023px%3B%26quot%3B%26gt%3B%E6%9F%A5%E8%AF%A2%E6%B5%81%E7%A8%8B%26lt%3B%2Fspan%26gt%3B%22%20style%3D%22text%3Bhtml%3D1%3Balign%3Dcenter%3BverticalAlign%3Dmiddle%3Bresizable%3D0%3Bpoints%3D%5B%5D%3Bautosize%3D1%3BstrokeColor%3Dnone%3BfillColor%3Dnone%3BlabelBorderColor%3Dnone%3BfontStyle%3D0%3BfontColor%3D%23030303%3B%22%20vertex%3D%221%22%20parent%3D%221%22%3E%3CmxGeometry%20x%3D%22910%22%20y%3D%22110%22%20width%3D%22120%22%20height%3D%2240%22%20as%3D%22geometry%22%2F%3E%3C%2FmxCell%3E%3CmxCell%20id%3D%224%22%20value%3D%22%22%20style%3D%22shape%3Dstencil(fZbdcgIhDIWfZm8zQAg%2F17Z9j85U606tdqz9e%2FtmZ0c0uJ47xP0I5JwEBl59bp8%2F1kNwn6fj4W39M76ctgM%2FDCGM%2B%2B36OJ50NPDjwKvN4bh%2BPR6%2B9i%2Fz74%2Fn6ctp9H74nlb4nbmSKZeJCu5vngmZ6jzzNAO7cX8FVKEsBuBKrgKg9oAE8gkCbLeUhEoEQKSUDZDLeWYRKIl8MEDRmHwfyBrBG6Amyu4%2BkDxxMoB3jhwgYu7TVAsVkFcWCs4CTBEoF4RctKeOxHIf8IXYpikHikAIf%2BMNUW94AGSSaoAoFIE3AlOyeWU%2Bp2E5S9yfQZcQILVuQOwZdJNoS9Ls3wA5u2XZTIHECqeJ9kDpSaauRiNVcAY1QhdBzeLBli5WazpkSsBLV25uRaqWRyFawTQzRRIQYirJzq5atkBqLfouwqUxLBepthWb10vrWZY6UOAeyKCCtDV625mm9gmUC4Wc3VLJMMIE1BsA2FW9JraVlQB7n3c9oMKhCLEvIM1zBPZ25%2FumNQ1tVEC2G%2BfFCC8g398O2hNQuQlVu752DBfA%2Bq0ptnqO5JFmeuIuo9DY7KjY71UxdJV4EntifPWorW%2B%2BR%2FdC4t7V3DlIB5cHx2bc7eb3yvX%2F%2FQNFp%2BbHDT%2F%2BAw%3D%3D)%3BlineShape%3D1%3BlabelBorderColor%3Dnone%3BfontSize%3D23%3BfontColor%3D%23030303%3B%22%20vertex%3D%221%22%20parent%3D%221%22%3E%3CmxGeometry%20x%3D%22948.8679608424759%22%20y%3D%22364.8753124585194%22%20width%3D%224.672539772115215%22%20height%3D%224.665236216357243%22%20as%3D%22geometry%22%2F%3E%3C%2FmxCell%3E%3CmxCell%20id%3D%225%22%20value%3D%22%E8%AF%A5%E6%B5%81%E7%A8%8B%E5%AD%98%E5%9C%A8%E4%B9%88%22%20style%3D%22text%3Bhtml%3D1%3Balign%3Dcenter%3BverticalAlign%3Dmiddle%3Bresizable%3D0%3Bpoints%3D%5B%5D%3Bautosize%3D1%3BstrokeColor%3Dnone%3BfillColor%3Dnone%3BfontSize%3D23%3BfontColor%3D%23030303%3B%22%20vertex%3D%221%22%20parent%3D%221%22%3E%3CmxGeometry%20x%3D%22990%22%20y%3D%22180%22%20width%3D%22160%22%20height%3D%2240%22%20as%3D%22geometry%22%2F%3E%3C%2FmxCell%3E%3CmxCell%20id%3D%226%22%20value%3D%22T%22%20style%3D%22text%3Bhtml%3D1%3Balign%3Dcenter%3BverticalAlign%3Dmiddle%3Bresizable%3D0%3Bpoints%3D%5B%5D%3Bautosize%3D1%3BstrokeColor%3Dnone%3BfillColor%3Dnone%3BfontSize%3D23%3BfontColor%3D%23030303%3B%22%20vertex%3D%221%22%20parent%3D%221%22%3E%3CmxGeometry%20x%3D%22710%22%20y%3D%22190%22%20width%3D%2240%22%20height%3D%2240%22%20as%3D%22geometry%22%2F%3E%3C%2FmxCell%3E%3CmxCell%20id%3D%227%22%20value%3D%22F%22%20style%3D%22text%3Bhtml%3D1%3Balign%3Dcenter%3BverticalAlign%3Dmiddle%3Bresizable%3D0%3Bpoints%3D%5B%5D%3Bautosize%3D1%3BstrokeColor%3Dnone%3BfillColor%3Dnone%3BfontSize%3D23%3BfontColor%3D%23030303%3B%22%20vertex%3D%221%22%20parent%3D%221%22%3E%3CmxGeometry%20x%3D%221180%22%20y%3D%22200%22%20width%3D%2240%22%20height%3D%2240%22%20as%3D%22geometry%22%2F%3E%3C%2FmxCell%3E%3CmxCell%20id%3D%228%22%20value%3D%22%E6%9F%A5%E8%AF%A2%E7%9B%AE%E6%A0%87%E9%A1%B9%E7%9B%AE%22%20style%3D%22text%3Bhtml%3D1%3Balign%3Dcenter%3BverticalAlign%3Dmiddle%3Bresizable%3D0%3Bpoints%3D%5B%5D%3Bautosize%3D1%3BstrokeColor%3Dnone%3BfillColor%3Dnone%3BfontSize%3D23%3BfontColor%3D%23030303%3B%22%20vertex%3D%221%22%20parent%3D%221%22%3E%3CmxGeometry%20x%3D%22830%22%20y%3D%22265%22%20width%3D%22160%22%20height%3D%2240%22%20as%3D%22geometry%22%2F%3E%3C%2FmxCell%3E%3CmxCell%20id%3D%229%22%20value%3D%22%E8%AF%A5%E9%A1%B9%E7%9B%AE%E5%AD%98%E5%9C%A8%E4%B9%88%22%20style%3D%22text%3Bhtml%3D1%3Balign%3Dcenter%3BverticalAlign%3Dmiddle%3Bresizable%3D0%3Bpoints%3D%5B%5D%3Bautosize%3D1%3BstrokeColor%3Dnone%3BfillColor%3Dnone%3BfontSize%3D23%3BfontColor%3D%23030303%3B%22%20vertex%3D%221%22%20parent%3D%221%22%3E%3CmxGeometry%20x%3D%22890%22%20y%3D%22340%22%20width%3D%22160%22%20height%3D%2240%22%20as%3D%22geometry%22%2F%3E%3C%2FmxCell%3E%3CmxCell%20id%3D%2210%22%20style%3D%22edgeStyle%3Dnone%3Bhtml%3D1%3BexitX%3D0%3BexitY%3D0.5%3BexitDx%3D0%3BexitDy%3D0%3BexitPerimeter%3D0%3BentryX%3D0.817%3BentryY%3D0.4%3BentryDx%3D0%3BentryDy%3D0%3BentryPerimeter%3D0%3BstrokeColor%3D%23030303%3BfontSize%3D23%3BfontColor%3D%23030303%3BendArrow%3Dnone%3BendFill%3D0%3B%22%20edge%3D%221%22%20source%3D%2212%22%20target%3D%2213%22%20parent%3D%221%22%3E%3CmxGeometry%20relative%3D%221%22%20as%3D%22geometry%22%2F%3E%3C%2FmxCell%3E%3CmxCell%20id%3D%2211%22%20style%3D%22edgeStyle%3Dnone%3Bhtml%3D1%3BexitX%3D1%3BexitY%3D0.5%3BexitDx%3D0%3BexitDy%3D0%3BexitPerimeter%3D0%3BentryX%3D0.811%3BentryY%3D0.8%3BentryDx%3D0%3BentryDy%3D0%3BentryPerimeter%3D0%3BstrokeColor%3D%23030303%3BfontSize%3D23%3BfontColor%3D%23030303%3BendArrow%3Dnone%3BendFill%3D0%3B%22%20edge%3D%221%22%20source%3D%2212%22%20target%3D%2213%22%20parent%3D%221%22%3E%3CmxGeometry%20relative%3D%221%22%20as%3D%22geometry%22%2F%3E%3C%2FmxCell%3E%3CmxCell%20id%3D%2212%22%20value%3D%22%22%20style%3D%22line%3BstrokeWidth%3D2%3Bhtml%3D1%3BlabelBorderColor%3Dnone%3BfontSize%3D23%3BfillColor%3Ddefault%3BstrokeColor%3D%23030202%3B%22%20vertex%3D%221%22%20parent%3D%221%22%3E%3CmxGeometry%20x%3D%22690%22%20y%3D%22160%22%20width%3D%22540%22%20height%3D%2210%22%20as%3D%22geometry%22%2F%3E%3C%2FmxCell%3E%3CmxCell%20id%3D%2213%22%20value%3D%22%22%20style%3D%22line%3BstrokeWidth%3D2%3Bhtml%3D1%3BlabelBorderColor%3Dnone%3BfontSize%3D23%3BfillColor%3Ddefault%3BstrokeColor%3D%23030202%3B%22%20vertex%3D%221%22%20parent%3D%221%22%3E%3CmxGeometry%20x%3D%22690%22%20y%3D%22240%22%20width%3D%22540%22%20height%3D%2210%22%20as%3D%22geometry%22%2F%3E%3C%2FmxCell%3E%3CmxCell%20id%3D%2214%22%20style%3D%22edgeStyle%3Dnone%3Bhtml%3D1%3BexitX%3D0%3BexitY%3D0.5%3BexitDx%3D0%3BexitDy%3D0%3BexitPerimeter%3D0%3BstrokeColor%3D%23030303%3BfontSize%3D23%3BfontColor%3D%23030303%3BendArrow%3Dnone%3BendFill%3D0%3BentryX%3D0.75%3BentryY%3D0.5%3BentryDx%3D0%3BentryDy%3D0%3BentryPerimeter%3D0%3B%22%20edge%3D%221%22%20source%3D%2215%22%20target%3D%2219%22%20parent%3D%221%22%3E%3CmxGeometry%20relative%3D%221%22%20as%3D%22geometry%22%2F%3E%3C%2FmxCell%3E%3CmxCell%20id%3D%2215%22%20value%3D%22%22%20style%3D%22line%3BstrokeWidth%3D2%3Bhtml%3D1%3BlabelBorderColor%3Dnone%3BfontSize%3D23%3BfillColor%3Ddefault%3BstrokeColor%3D%23030202%3B%22%20vertex%3D%221%22%20parent%3D%221%22%3E%3CmxGeometry%20x%3D%22690%22%20y%3D%22320%22%20width%3D%22440%22%20height%3D%2210%22%20as%3D%22geometry%22%2F%3E%3C%2FmxCell%3E%3CmxCell%20id%3D%2216%22%20style%3D%22edgeStyle%3Dnone%3Bhtml%3D1%3BexitX%3D0.25%3BexitY%3D0.5%3BexitDx%3D0%3BexitDy%3D0%3BexitPerimeter%3D0%3BentryX%3D0.75%3BentryY%3D0.5%3BentryDx%3D0%3BentryDy%3D0%3BentryPerimeter%3D0%3BstrokeColor%3D%23030303%3BfontSize%3D23%3BfontColor%3D%23030303%3BendArrow%3Dnone%3BendFill%3D0%3B%22%20edge%3D%221%22%20source%3D%2217%22%20target%3D%2219%22%20parent%3D%221%22%3E%3CmxGeometry%20relative%3D%221%22%20as%3D%22geometry%22%2F%3E%3C%2FmxCell%3E%3CmxCell%20id%3D%2217%22%20value%3D%22%22%20style%3D%22line%3BstrokeWidth%3D2%3Bhtml%3D1%3BlabelBorderColor%3Dnone%3BfontSize%3D23%3BfillColor%3Ddefault%3BstrokeColor%3D%23030202%3Bdirection%3Dsouth%3B%22%20vertex%3D%221%22%20parent%3D%221%22%3E%3CmxGeometry%20x%3D%221125%22%20y%3D%22243%22%20width%3D%2210%22%20height%3D%22332%22%20as%3D%22geometry%22%2F%3E%3C%2FmxCell%3E%3CmxCell%20id%3D%2218%22%20style%3D%22edgeStyle%3Dnone%3Bhtml%3D1%3BexitX%3D0%3BexitY%3D0.5%3BexitDx%3D0%3BexitDy%3D0%3BexitPerimeter%3D0%3BentryX%3D0.621%3BentryY%3D0.6%3BentryDx%3D0%3BentryDy%3D0%3BentryPerimeter%3D0%3BstrokeColor%3D%23030303%3BfontSize%3D23%3BfontColor%3D%23030303%3BendArrow%3Dnone%3BendFill%3D0%3B%22%20edge%3D%221%22%20source%3D%2219%22%20target%3D%2225%22%20parent%3D%221%22%3E%3CmxGeometry%20relative%3D%221%22%20as%3D%22geometry%22%2F%3E%3C%2FmxCell%3E%3CmxCell%20id%3D%2219%22%20value%3D%22%22%20style%3D%22line%3BstrokeWidth%3D2%3Bhtml%3D1%3BlabelBorderColor%3Dnone%3BfontSize%3D23%3BfillColor%3Ddefault%3BstrokeColor%3D%23030202%3B%22%20vertex%3D%221%22%20parent%3D%221%22%3E%3CmxGeometry%20x%3D%22690%22%20y%3D%22401.5%22%20width%3D%22440%22%20height%3D%2210%22%20as%3D%22geometry%22%2F%3E%3C%2FmxCell%3E%3CmxCell%20id%3D%2220%22%20value%3D%22F%22%20style%3D%22text%3Bhtml%3D1%3Balign%3Dcenter%3BverticalAlign%3Dmiddle%3Bresizable%3D0%3Bpoints%3D%5B%5D%3Bautosize%3D1%3BstrokeColor%3Dnone%3BfillColor%3Dnone%3BfontSize%3D23%3BfontColor%3D%23030303%3B%22%20vertex%3D%221%22%20parent%3D%221%22%3E%3CmxGeometry%20x%3D%221080%22%20y%3D%22361.5%22%20width%3D%2240%22%20height%3D%2240%22%20as%3D%22geometry%22%2F%3E%3C%2FmxCell%3E%3CmxCell%20id%3D%2221%22%20value%3D%22T%22%20style%3D%22text%3Bhtml%3D1%3Balign%3Dcenter%3BverticalAlign%3Dmiddle%3Bresizable%3D0%3Bpoints%3D%5B%5D%3Bautosize%3D1%3BstrokeColor%3Dnone%3BfillColor%3Dnone%3BfontSize%3D23%3BfontColor%3D%23030303%3B%22%20vertex%3D%221%22%20parent%3D%221%22%3E%3CmxGeometry%20x%3D%22730%22%20y%3D%22350%22%20width%3D%2240%22%20height%3D%2240%22%20as%3D%22geometry%22%2F%3E%3C%2FmxCell%3E%3CmxCell%20id%3D%2222%22%20style%3D%22edgeStyle%3Dnone%3Bhtml%3D1%3BexitX%3D0%3BexitY%3D0.5%3BexitDx%3D0%3BexitDy%3D0%3BexitPerimeter%3D0%3BentryX%3D0.621%3BentryY%3D0.8%3BentryDx%3D0%3BentryDy%3D0%3BentryPerimeter%3D0%3BstrokeColor%3D%23030303%3BfontSize%3D23%3BfontColor%3D%23030303%3BendArrow%3Dnone%3BendFill%3D0%3B%22%20edge%3D%221%22%20source%3D%2223%22%20target%3D%2225%22%20parent%3D%221%22%3E%3CmxGeometry%20relative%3D%221%22%20as%3D%22geometry%22%2F%3E%3C%2FmxCell%3E%3CmxCell%20id%3D%2223%22%20value%3D%22%22%20style%3D%22line%3BstrokeWidth%3D2%3Bhtml%3D1%3BlabelBorderColor%3Dnone%3BfontSize%3D23%3BfillColor%3Ddefault%3BstrokeColor%3D%23030202%3Bdirection%3Dsouth%3B%22%20vertex%3D%221%22%20parent%3D%221%22%3E%3CmxGeometry%20x%3D%221016%22%20y%3D%22407%22%20width%3D%2210%22%20height%3D%22167%22%20as%3D%22geometry%22%2F%3E%3C%2FmxCell%3E%3CmxCell%20id%3D%2224%22%20value%3D%22%E8%AF%A5%E9%A1%B9%E7%9B%AE%E5%BC%80%E5%A7%8B%E4%BA%86%E5%90%97%22%20style%3D%22text%3Bhtml%3D1%3Balign%3Dcenter%3BverticalAlign%3Dmiddle%3Bresizable%3D0%3Bpoints%3D%5B%5D%3Bautosize%3D1%3BstrokeColor%3Dnone%3BfillColor%3Dnone%3BfontSize%3D23%3BfontColor%3D%23030303%3B%22%20vertex%3D%221%22%20parent%3D%221%22%3E%3CmxGeometry%20x%3D%22790%22%20y%3D%22411.5%22%20width%3D%22180%22%20height%3D%2240%22%20as%3D%22geometry%22%2F%3E%3C%2FmxCell%3E%3CmxCell%20id%3D%2225%22%20value%3D%22%22%20style%3D%22line%3BstrokeWidth%3D2%3Bhtml%3D1%3BlabelBorderColor%3Dnone%3BfontSize%3D23%3BfillColor%3Ddefault%3BstrokeColor%3D%23030202%3B%22%20vertex%3D%221%22%20parent%3D%221%22%3E%3CmxGeometry%20x%3D%22690%22%20y%3D%22470%22%20width%3D%22330%22%20height%3D%2210%22%20as%3D%22geometry%22%2F%3E%3C%2FmxCell%3E%3CmxCell%20id%3D%2226%22%20value%3D%22%22%20style%3D%22line%3BstrokeWidth%3D2%3Bhtml%3D1%3BlabelBorderColor%3Dnone%3BfontSize%3D23%3BfillColor%3Ddefault%3BstrokeColor%3D%23030202%3Bdirection%3Dsouth%3B%22%20vertex%3D%221%22%20parent%3D%221%22%3E%3CmxGeometry%20x%3D%22892%22%20y%3D%22473%22%20width%3D%2210%22%20height%3D%22103%22%20as%3D%22geometry%22%2F%3E%3C%2FmxCell%3E%3CmxCell%20id%3D%2227%22%20value%3D%22F%22%20style%3D%22text%3Bhtml%3D1%3Balign%3Dcenter%3BverticalAlign%3Dmiddle%3Bresizable%3D0%3Bpoints%3D%5B%5D%3Bautosize%3D1%3BstrokeColor%3Dnone%3BfillColor%3Dnone%3BfontSize%3D23%3BfontColor%3D%23030303%3B%22%20vertex%3D%221%22%20parent%3D%221%22%3E%3CmxGeometry%20x%3D%22970%22%20y%3D%22440%22%20width%3D%2240%22%20height%3D%2240%22%20as%3D%22geometry%22%2F%3E%3C%2FmxCell%3E%3CmxCell%20id%3D%2228%22%20value%3D%22T%22%20style%3D%22text%3Bhtml%3D1%3Balign%3Dcenter%3BverticalAlign%3Dmiddle%3Bresizable%3D0%3Bpoints%3D%5B%5D%3Bautosize%3D1%3BstrokeColor%3Dnone%3BfillColor%3Dnone%3BfontSize%3D23%3BfontColor%3D%23030303%3B%22%20vertex%3D%221%22%20parent%3D%221%22%3E%3CmxGeometry%20x%3D%22720%22%20y%3D%22430%22%20width%3D%2240%22%20height%3D%2240%22%20as%3D%22geometry%22%2F%3E%3C%2FmxCell%3E%3CmxCell%20id%3D%2229%22%20value%3D%22%22%20style%3D%22line%3BstrokeWidth%3D2%3Bhtml%3D1%3BlabelBorderColor%3Dnone%3BfontSize%3D23%3BfillColor%3Ddefault%3BstrokeColor%3D%23030202%3B%22%20vertex%3D%221%22%20parent%3D%221%22%3E%3CmxGeometry%20x%3D%22690%22%20y%3D%22570%22%20width%3D%22540%22%20height%3D%2210%22%20as%3D%22geometry%22%2F%3E%3C%2FmxCell%3E%3CmxCell%20id%3D%2230%22%20value%3D%22%E7%A1%AE%E8%AE%A4%E9%A1%B9%E7%9B%AE%E5%BC%80%E5%A7%8B%22%20style%3D%22text%3Bhtml%3D1%3Balign%3Dcenter%3BverticalAlign%3Dmiddle%3Bresizable%3D0%3Bpoints%3D%5B%5D%3Bautosize%3D1%3BstrokeColor%3Dnone%3BfillColor%3Dnone%3BfontSize%3D23%3BfontColor%3D%23030303%3B%22%20vertex%3D%221%22%20parent%3D%221%22%3E%3CmxGeometry%20x%3D%22720%22%20y%3D%22510%22%20width%3D%22160%22%20height%3D%2240%22%20as%3D%22geometry%22%2F%3E%3C%2FmxCell%3E%3CmxCell%20id%3D%2231%22%20value%3D%22%E7%BB%93%E6%9D%9F%22%20style%3D%22text%3Bhtml%3D1%3Balign%3Dcenter%3BverticalAlign%3Dmiddle%3Bresizable%3D0%3Bpoints%3D%5B%5D%3Bautosize%3D1%3BstrokeColor%3Dnone%3BfillColor%3Dnone%3BfontSize%3D23%3BfontColor%3D%23030303%3B%22%20vertex%3D%221%22%20parent%3D%221%22%3E%3CmxGeometry%20x%3D%22910%22%20y%3D%22590%22%20width%3D%2270%22%20height%3D%2240%22%20as%3D%22geometry%22%2F%3E%3C%2FmxCell%3E%3CmxCell%20id%3D%2232%22%20value%3D%22%E4%B8%8D%E5%81%9A%E5%A4%84%E7%90%86%22%20style%3D%22text%3Bhtml%3D1%3Balign%3Dcenter%3BverticalAlign%3Dmiddle%3Bresizable%3D0%3Bpoints%3D%5B%5D%3Bautosize%3D1%3BstrokeColor%3Dnone%3BfillColor%3Dnone%3BfontSize%3D23%3BfontColor%3D%23030303%3B%22%20vertex%3D%221%22%20parent%3D%221%22%3E%3CmxGeometry%20x%3D%221120%22%20y%3D%22407%22%20width%3D%22120%22%20height%3D%2240%22%20as%3D%22geometry%22%2F%3E%3C%2FmxCell%3E%3CmxCell%20id%3D%2233%22%20value%3D%22%E4%B8%8D%E5%81%9A%E5%A4%84%E7%90%86%22%20style%3D%22text%3Bhtml%3D1%3Balign%3Dcenter%3BverticalAlign%3Dmiddle%3Bresizable%3D0%3Bpoints%3D%5B%5D%3Bautosize%3D1%3BstrokeColor%3Dnone%3BfillColor%3Dnone%3BfontSize%3D23%3BfontColor%3D%23030303%3B%22%20vertex%3D%221%22%20parent%3D%221%22%3E%3CmxGeometry%20x%3D%221015%22%20y%3D%22473%22%20width%3D%22120%22%20height%3D%2240%22%20as%3D%22geometry%22%2F%3E%3C%2FmxCell%3E%3CmxCell%20id%3D%2234%22%20value%3D%22%E4%B8%8D%E5%81%9A%E5%A4%84%E7%90%86%22%20style%3D%22text%3Bhtml%3D1%3Balign%3Dcenter%3BverticalAlign%3Dmiddle%3Bresizable%3D0%3Bpoints%3D%5B%5D%3Bautosize%3D1%3BstrokeColor%3Dnone%3BfillColor%3Dnone%3BfontSize%3D23%3BfontColor%3D%23030303%3B%22%20vertex%3D%221%22%20parent%3D%221%22%3E%3CmxGeometry%20x%3D%22896%22%20y%3D%22513%22%20width%3D%22120%22%20height%3D%2240%22%20as%3D%22geometry%22%2F%3E%3C%2FmxCell%3E%3C%2Froot%3E%3C%2FmxGraphModel%3E&lt;/span&gt;" style="text;html=1;align=center;verticalAlign=middle;resizable=0;points=[];autosize=1;strokeColor=none;fillColor=none;fontSize=23;fontColor=#030303;" parent="1" vertex="1">
                    <mxGeometry x="1390" y="510" width="160" height="40" as="geometry"/>
                </mxCell>
                <mxCell id="126" value="结束" style="text;html=1;align=center;verticalAlign=middle;resizable=0;points=[];autosize=1;strokeColor=none;fillColor=none;fontSize=23;fontColor=#030303;" parent="1" vertex="1">
                    <mxGeometry x="1580" y="590" width="70" height="40" as="geometry"/>
                </mxCell>
                <mxCell id="127" value="不做处理" style="text;html=1;align=center;verticalAlign=middle;resizable=0;points=[];autosize=1;strokeColor=none;fillColor=none;fontSize=23;fontColor=#030303;" parent="1" vertex="1">
                    <mxGeometry x="1790" y="407" width="120" height="40" as="geometry"/>
                </mxCell>
                <mxCell id="128" value="不做处理" style="text;html=1;align=center;verticalAlign=middle;resizable=0;points=[];autosize=1;strokeColor=none;fillColor=none;fontSize=23;fontColor=#030303;" parent="1" vertex="1">
                    <mxGeometry x="1685" y="473" width="120" height="40" as="geometry"/>
                </mxCell>
                <mxCell id="129" value="不做处理" style="text;html=1;align=center;verticalAlign=middle;resizable=0;points=[];autosize=1;strokeColor=none;fillColor=none;fontSize=23;fontColor=#030303;" parent="1" vertex="1">
                    <mxGeometry x="1566" y="513" width="120" height="40" as="geometry"/>
                </mxCell>
                <mxCell id="130" value="" style="rounded=0;whiteSpace=wrap;html=1;fillColor=#f9f7ed;strokeColor=#36393d;" parent="1" vertex="1">
                    <mxGeometry x="150" y="920" width="540" height="540" as="geometry"/>
                </mxCell>
                <mxCell id="131" value="&lt;span style=&quot;font-size: 23px;&quot;&gt;查询流程&lt;/span&gt;" style="text;html=1;align=center;verticalAlign=middle;resizable=0;points=[];autosize=1;strokeColor=none;fillColor=none;labelBorderColor=none;fontStyle=0;fontColor=#030303;" parent="1" vertex="1">
                    <mxGeometry x="370" y="930" width="120" height="40" as="geometry"/>
                </mxCell>
                <mxCell id="132" value="" style="shape=stencil(fZbdcgIhDIWfZm8zQAg/17Z9j85U606tdqz9e/tmZ0c0uJ47xP0I5JwEBl59bp8/1kNwn6fj4W39M76ctgM/DCGM++36OJ50NPDjwKvN4bh+PR6+9i/z74/n6ctp9H74nlb4nbmSKZeJCu5vngmZ6jzzNAO7cX8FVKEsBuBKrgKg9oAE8gkCbLeUhEoEQKSUDZDLeWYRKIl8MEDRmHwfyBrBG6Amyu4+kDxxMoB3jhwgYu7TVAsVkFcWCs4CTBEoF4RctKeOxHIf8IXYpikHikAIf+MNUW94AGSSaoAoFIE3AlOyeWU+p2E5S9yfQZcQILVuQOwZdJNoS9Ls3wA5u2XZTIHECqeJ9kDpSaauRiNVcAY1QhdBzeLBli5WazpkSsBLV25uRaqWRyFawTQzRRIQYirJzq5atkBqLfouwqUxLBepthWb10vrWZY6UOAeyKCCtDV625mm9gmUC4Wc3VLJMMIE1BsA2FW9JraVlQB7n3c9oMKhCLEvIM1zBPZ25/umNQ1tVEC2G+fFCC8g398O2hNQuQlVu752DBfA+q0ptnqO5JFmeuIuo9DY7KjY71UxdJV4EntifPWorW++R/dC4t7V3DlIB5cHx2bc7eb3yvX//QNFp+bHDT/+Aw==);lineShape=1;labelBorderColor=none;fontSize=23;fontColor=#030303;" parent="1" vertex="1">
                    <mxGeometry x="408.8679608424759" y="1184.8753124585194" width="4.672539772115215" height="4.665236216357243" as="geometry"/>
                </mxCell>
                <mxCell id="133" value="该流程存在么" style="text;html=1;align=center;verticalAlign=middle;resizable=0;points=[];autosize=1;strokeColor=none;fillColor=none;fontSize=23;fontColor=#030303;" parent="1" vertex="1">
                    <mxGeometry x="450" y="1000" width="160" height="40" as="geometry"/>
                </mxCell>
                <mxCell id="134" value="T" style="text;html=1;align=center;verticalAlign=middle;resizable=0;points=[];autosize=1;strokeColor=none;fillColor=none;fontSize=23;fontColor=#030303;" parent="1" vertex="1">
                    <mxGeometry x="170" y="1010" width="40" height="40" as="geometry"/>
                </mxCell>
                <mxCell id="135" value="F" style="text;html=1;align=center;verticalAlign=middle;resizable=0;points=[];autosize=1;strokeColor=none;fillColor=none;fontSize=23;fontColor=#030303;" parent="1" vertex="1">
                    <mxGeometry x="640" y="1020" width="40" height="40" as="geometry"/>
                </mxCell>
                <mxCell id="136" value="查询目标项目" style="text;html=1;align=center;verticalAlign=middle;resizable=0;points=[];autosize=1;strokeColor=none;fillColor=none;fontSize=23;fontColor=#030303;" parent="1" vertex="1">
                    <mxGeometry x="290" y="1085" width="160" height="40" as="geometry"/>
                </mxCell>
                <mxCell id="137" value="该项目存在么" style="text;html=1;align=center;verticalAlign=middle;resizable=0;points=[];autosize=1;strokeColor=none;fillColor=none;fontSize=23;fontColor=#030303;" parent="1" vertex="1">
                    <mxGeometry x="350" y="1160" width="160" height="40" as="geometry"/>
                </mxCell>
                <mxCell id="138" style="edgeStyle=none;html=1;exitX=0;exitY=0.5;exitDx=0;exitDy=0;exitPerimeter=0;entryX=0.817;entryY=0.4;entryDx=0;entryDy=0;entryPerimeter=0;strokeColor=#030303;fontSize=23;fontColor=#030303;endArrow=none;endFill=0;" parent="1" source="140" target="141" edge="1">
                    <mxGeometry relative="1" as="geometry"/>
                </mxCell>
                <mxCell id="139" style="edgeStyle=none;html=1;exitX=1;exitY=0.5;exitDx=0;exitDy=0;exitPerimeter=0;entryX=0.811;entryY=0.8;entryDx=0;entryDy=0;entryPerimeter=0;strokeColor=#030303;fontSize=23;fontColor=#030303;endArrow=none;endFill=0;" parent="1" source="140" target="141" edge="1">
                    <mxGeometry relative="1" as="geometry"/>
                </mxCell>
                <mxCell id="140" value="" style="line;strokeWidth=2;html=1;labelBorderColor=none;fontSize=23;fillColor=default;strokeColor=#030202;" parent="1" vertex="1">
                    <mxGeometry x="150" y="980" width="540" height="10" as="geometry"/>
                </mxCell>
                <mxCell id="141" value="" style="line;strokeWidth=2;html=1;labelBorderColor=none;fontSize=23;fillColor=default;strokeColor=#030202;" parent="1" vertex="1">
                    <mxGeometry x="150" y="1060" width="540" height="10" as="geometry"/>
                </mxCell>
                <mxCell id="142" style="edgeStyle=none;html=1;exitX=0;exitY=0.5;exitDx=0;exitDy=0;exitPerimeter=0;strokeColor=#030303;fontSize=23;fontColor=#030303;endArrow=none;endFill=0;entryX=0.75;entryY=0.5;entryDx=0;entryDy=0;entryPerimeter=0;" parent="1" source="143" target="147" edge="1">
                    <mxGeometry relative="1" as="geometry"/>
                </mxCell>
                <mxCell id="143" value="" style="line;strokeWidth=2;html=1;labelBorderColor=none;fontSize=23;fillColor=default;strokeColor=#030202;" parent="1" vertex="1">
                    <mxGeometry x="150" y="1140" width="440" height="10" as="geometry"/>
                </mxCell>
                <mxCell id="144" style="edgeStyle=none;html=1;exitX=0.25;exitY=0.5;exitDx=0;exitDy=0;exitPerimeter=0;entryX=0.75;entryY=0.5;entryDx=0;entryDy=0;entryPerimeter=0;strokeColor=#030303;fontSize=23;fontColor=#030303;endArrow=none;endFill=0;" parent="1" source="145" target="147" edge="1">
                    <mxGeometry relative="1" as="geometry"/>
                </mxCell>
                <mxCell id="145" value="" style="line;strokeWidth=2;html=1;labelBorderColor=none;fontSize=23;fillColor=default;strokeColor=#030202;direction=south;" parent="1" vertex="1">
                    <mxGeometry x="585" y="1063" width="10" height="332" as="geometry"/>
                </mxCell>
                <mxCell id="146" style="edgeStyle=none;html=1;exitX=0;exitY=0.5;exitDx=0;exitDy=0;exitPerimeter=0;entryX=0.621;entryY=0.6;entryDx=0;entryDy=0;entryPerimeter=0;strokeColor=#030303;fontSize=23;fontColor=#030303;endArrow=none;endFill=0;" parent="1" source="147" target="153" edge="1">
                    <mxGeometry relative="1" as="geometry"/>
                </mxCell>
                <mxCell id="147" value="" style="line;strokeWidth=2;html=1;labelBorderColor=none;fontSize=23;fillColor=default;strokeColor=#030202;" parent="1" vertex="1">
                    <mxGeometry x="150" y="1221.5" width="440" height="10" as="geometry"/>
                </mxCell>
                <mxCell id="148" value="F" style="text;html=1;align=center;verticalAlign=middle;resizable=0;points=[];autosize=1;strokeColor=none;fillColor=none;fontSize=23;fontColor=#030303;" parent="1" vertex="1">
                    <mxGeometry x="540" y="1181.5" width="40" height="40" as="geometry"/>
                </mxCell>
                <mxCell id="149" value="T" style="text;html=1;align=center;verticalAlign=middle;resizable=0;points=[];autosize=1;strokeColor=none;fillColor=none;fontSize=23;fontColor=#030303;" parent="1" vertex="1">
                    <mxGeometry x="190" y="1170" width="40" height="40" as="geometry"/>
                </mxCell>
                <mxCell id="150" style="edgeStyle=none;html=1;exitX=0;exitY=0.5;exitDx=0;exitDy=0;exitPerimeter=0;entryX=0.621;entryY=0.8;entryDx=0;entryDy=0;entryPerimeter=0;strokeColor=#030303;fontSize=23;fontColor=#030303;endArrow=none;endFill=0;" parent="1" source="151" target="153" edge="1">
                    <mxGeometry relative="1" as="geometry"/>
                </mxCell>
                <mxCell id="151" value="" style="line;strokeWidth=2;html=1;labelBorderColor=none;fontSize=23;fillColor=default;strokeColor=#030202;direction=south;" parent="1" vertex="1">
                    <mxGeometry x="476" y="1227" width="10" height="167" as="geometry"/>
                </mxCell>
                <mxCell id="152" value="该项目未开始吗" style="text;html=1;align=center;verticalAlign=middle;resizable=0;points=[];autosize=1;strokeColor=none;fillColor=none;fontSize=23;fontColor=#030303;" parent="1" vertex="1">
                    <mxGeometry x="250" y="1231.5" width="180" height="40" as="geometry"/>
                </mxCell>
                <mxCell id="153" value="" style="line;strokeWidth=2;html=1;labelBorderColor=none;fontSize=23;fillColor=default;strokeColor=#030202;" parent="1" vertex="1">
                    <mxGeometry x="150" y="1290" width="330" height="10" as="geometry"/>
                </mxCell>
                <mxCell id="154" value="" style="line;strokeWidth=2;html=1;labelBorderColor=none;fontSize=23;fillColor=default;strokeColor=#030202;direction=south;" parent="1" vertex="1">
                    <mxGeometry x="352" y="1293" width="10" height="103" as="geometry"/>
                </mxCell>
                <mxCell id="155" value="F" style="text;html=1;align=center;verticalAlign=middle;resizable=0;points=[];autosize=1;strokeColor=none;fillColor=none;fontSize=23;fontColor=#030303;" parent="1" vertex="1">
                    <mxGeometry x="430" y="1260" width="40" height="40" as="geometry"/>
                </mxCell>
                <mxCell id="156" value="T" style="text;html=1;align=center;verticalAlign=middle;resizable=0;points=[];autosize=1;strokeColor=none;fillColor=none;fontSize=23;fontColor=#030303;" parent="1" vertex="1">
                    <mxGeometry x="180" y="1250" width="40" height="40" as="geometry"/>
                </mxCell>
                <mxCell id="157" value="" style="line;strokeWidth=2;html=1;labelBorderColor=none;fontSize=23;fillColor=default;strokeColor=#030202;" parent="1" vertex="1">
                    <mxGeometry x="150" y="1390" width="540" height="10" as="geometry"/>
                </mxCell>
                <mxCell id="158" value="&lt;div style=&quot;text-align: center;&quot;&gt;&lt;span style=&quot;text-align: start; background-color: initial;&quot;&gt;开始该项目&lt;/span&gt;&lt;span style=&quot;color: rgba(0, 0, 0, 0); font-family: monospace; font-size: 0px; text-align: start; background-color: initial;&quot;&gt;3CmxGraphModel%3E%3Croot%3E%3CmxCell%20id%3D%220%22%2F%3E%3CmxCell%20id%3D%221%22%20parent%3D%220%22%2F%3E%3CmxCell%20id%3D%222%22%20value%3D%22%22%20style%3D%22rounded%3D0%3BwhiteSpace%3Dwrap%3Bhtml%3D1%3BfillColor%3D%23f9f7ed%3BstrokeColor%3D%2336393d%3B%22%20vertex%3D%221%22%20parent%3D%221%22%3E%3CmxGeometry%20x%3D%22690%22%20y%3D%22100%22%20width%3D%22540%22%20height%3D%22540%22%20as%3D%22geometry%22%2F%3E%3C%2FmxCell%3E%3CmxCell%20id%3D%223%22%20value%3D%22%26lt%3Bspan%20style%3D%26quot%3Bfont-size%3A%2023px%3B%26quot%3B%26gt%3B%E6%9F%A5%E8%AF%A2%E6%B5%81%E7%A8%8B%26lt%3B%2Fspan%26gt%3B%22%20style%3D%22text%3Bhtml%3D1%3Balign%3Dcenter%3BverticalAlign%3Dmiddle%3Bresizable%3D0%3Bpoints%3D%5B%5D%3Bautosize%3D1%3BstrokeColor%3Dnone%3BfillColor%3Dnone%3BlabelBorderColor%3Dnone%3BfontStyle%3D0%3BfontColor%3D%23030303%3B%22%20vertex%3D%221%22%20parent%3D%221%22%3E%3CmxGeometry%20x%3D%22910%22%20y%3D%22110%22%20width%3D%22120%22%20height%3D%2240%22%20as%3D%22geometry%22%2F%3E%3C%2FmxCell%3E%3CmxCell%20id%3D%224%22%20value%3D%22%22%20style%3D%22shape%3Dstencil(fZbdcgIhDIWfZm8zQAg%2F17Z9j85U606tdqz9e%2FtmZ0c0uJ47xP0I5JwEBl59bp8%2F1kNwn6fj4W39M76ctgM%2FDCGM%2B%2B36OJ50NPDjwKvN4bh%2BPR6%2B9i%2Fz74%2Fn6ctp9H74nlb4nbmSKZeJCu5vngmZ6jzzNAO7cX8FVKEsBuBKrgKg9oAE8gkCbLeUhEoEQKSUDZDLeWYRKIl8MEDRmHwfyBrBG6Amyu4%2BkDxxMoB3jhwgYu7TVAsVkFcWCs4CTBEoF4RctKeOxHIf8IXYpikHikAIf%2BMNUW94AGSSaoAoFIE3AlOyeWU%2Bp2E5S9yfQZcQILVuQOwZdJNoS9Ls3wA5u2XZTIHECqeJ9kDpSaauRiNVcAY1QhdBzeLBli5WazpkSsBLV25uRaqWRyFawTQzRRIQYirJzq5atkBqLfouwqUxLBepthWb10vrWZY6UOAeyKCCtDV625mm9gmUC4Wc3VLJMMIE1BsA2FW9JraVlQB7n3c9oMKhCLEvIM1zBPZ25%2FumNQ1tVEC2G%2BfFCC8g398O2hNQuQlVu752DBfA%2Bq0ptnqO5JFmeuIuo9DY7KjY71UxdJV4EntifPWorW%2B%2BR%2FdC4t7V3DlIB5cHx2bc7eb3yvX%2F%2FQNFp%2BbHDT%2F%2BAw%3D%3D)%3BlineShape%3D1%3BlabelBorderColor%3Dnone%3BfontSize%3D23%3BfontColor%3D%23030303%3B%22%20vertex%3D%221%22%20parent%3D%221%22%3E%3CmxGeometry%20x%3D%22948.8679608424759%22%20y%3D%22364.8753124585194%22%20width%3D%224.672539772115215%22%20height%3D%224.665236216357243%22%20as%3D%22geometry%22%2F%3E%3C%2FmxCell%3E%3CmxCell%20id%3D%225%22%20value%3D%22%E8%AF%A5%E6%B5%81%E7%A8%8B%E5%AD%98%E5%9C%A8%E4%B9%88%22%20style%3D%22text%3Bhtml%3D1%3Balign%3Dcenter%3BverticalAlign%3Dmiddle%3Bresizable%3D0%3Bpoints%3D%5B%5D%3Bautosize%3D1%3BstrokeColor%3Dnone%3BfillColor%3Dnone%3BfontSize%3D23%3BfontColor%3D%23030303%3B%22%20vertex%3D%221%22%20parent%3D%221%22%3E%3CmxGeometry%20x%3D%22990%22%20y%3D%22180%22%20width%3D%22160%22%20height%3D%2240%22%20as%3D%22geometry%22%2F%3E%3C%2FmxCell%3E%3CmxCell%20id%3D%226%22%20value%3D%22T%22%20style%3D%22text%3Bhtml%3D1%3Balign%3Dcenter%3BverticalAlign%3Dmiddle%3Bresizable%3D0%3Bpoints%3D%5B%5D%3Bautosize%3D1%3BstrokeColor%3Dnone%3BfillColor%3Dnone%3BfontSize%3D23%3BfontColor%3D%23030303%3B%22%20vertex%3D%221%22%20parent%3D%221%22%3E%3CmxGeometry%20x%3D%22710%22%20y%3D%22190%22%20width%3D%2240%22%20height%3D%2240%22%20as%3D%22geometry%22%2F%3E%3C%2FmxCell%3E%3CmxCell%20id%3D%227%22%20value%3D%22F%22%20style%3D%22text%3Bhtml%3D1%3Balign%3Dcenter%3BverticalAlign%3Dmiddle%3Bresizable%3D0%3Bpoints%3D%5B%5D%3Bautosize%3D1%3BstrokeColor%3Dnone%3BfillColor%3Dnone%3BfontSize%3D23%3BfontColor%3D%23030303%3B%22%20vertex%3D%221%22%20parent%3D%221%22%3E%3CmxGeometry%20x%3D%221180%22%20y%3D%22200%22%20width%3D%2240%22%20height%3D%2240%22%20as%3D%22geometry%22%2F%3E%3C%2FmxCell%3E%3CmxCell%20id%3D%228%22%20value%3D%22%E6%9F%A5%E8%AF%A2%E7%9B%AE%E6%A0%87%E9%A1%B9%E7%9B%AE%22%20style%3D%22text%3Bhtml%3D1%3Balign%3Dcenter%3BverticalAlign%3Dmiddle%3Bresizable%3D0%3Bpoints%3D%5B%5D%3Bautosize%3D1%3BstrokeColor%3Dnone%3BfillColor%3Dnone%3BfontSize%3D23%3BfontColor%3D%23030303%3B%22%20vertex%3D%221%22%20parent%3D%221%22%3E%3CmxGeometry%20x%3D%22830%22%20y%3D%22265%22%20width%3D%22160%22%20height%3D%2240%22%20as%3D%22geometry%22%2F%3E%3C%2FmxCell%3E%3CmxCell%20id%3D%229%22%20value%3D%22%E8%AF%A5%E9%A1%B9%E7%9B%AE%E5%AD%98%E5%9C%A8%E4%B9%88%22%20style%3D%22text%3Bhtml%3D1%3Balign%3Dcenter%3BverticalAlign%3Dmiddle%3Bresizable%3D0%3Bpoints%3D%5B%5D%3Bautosize%3D1%3BstrokeColor%3Dnone%3BfillColor%3Dnone%3BfontSize%3D23%3BfontColor%3D%23030303%3B%22%20vertex%3D%221%22%20parent%3D%221%22%3E%3CmxGeometry%20x%3D%22890%22%20y%3D%22340%22%20width%3D%22160%22%20height%3D%2240%22%20as%3D%22geometry%22%2F%3E%3C%2FmxCell%3E%3CmxCell%20id%3D%2210%22%20style%3D%22edgeStyle%3Dnone%3Bhtml%3D1%3BexitX%3D0%3BexitY%3D0.5%3BexitDx%3D0%3BexitDy%3D0%3BexitPerimeter%3D0%3BentryX%3D0.817%3BentryY%3D0.4%3BentryDx%3D0%3BentryDy%3D0%3BentryPerimeter%3D0%3BstrokeColor%3D%23030303%3BfontSize%3D23%3BfontColor%3D%23030303%3BendArrow%3Dnone%3BendFill%3D0%3B%22%20edge%3D%221%22%20source%3D%2212%22%20target%3D%2213%22%20parent%3D%221%22%3E%3CmxGeometry%20relative%3D%221%22%20as%3D%22geometry%22%2F%3E%3C%2FmxCell%3E%3CmxCell%20id%3D%2211%22%20style%3D%22edgeStyle%3Dnone%3Bhtml%3D1%3BexitX%3D1%3BexitY%3D0.5%3BexitDx%3D0%3BexitDy%3D0%3BexitPerimeter%3D0%3BentryX%3D0.811%3BentryY%3D0.8%3BentryDx%3D0%3BentryDy%3D0%3BentryPerimeter%3D0%3BstrokeColor%3D%23030303%3BfontSize%3D23%3BfontColor%3D%23030303%3BendArrow%3Dnone%3BendFill%3D0%3B%22%20edge%3D%221%22%20source%3D%2212%22%20target%3D%2213%22%20parent%3D%221%22%3E%3CmxGeometry%20relative%3D%221%22%20as%3D%22geometry%22%2F%3E%3C%2FmxCell%3E%3CmxCell%20id%3D%2212%22%20value%3D%22%22%20style%3D%22line%3BstrokeWidth%3D2%3Bhtml%3D1%3BlabelBorderColor%3Dnone%3BfontSize%3D23%3BfillColor%3Ddefault%3BstrokeColor%3D%23030202%3B%22%20vertex%3D%221%22%20parent%3D%221%22%3E%3CmxGeometry%20x%3D%22690%22%20y%3D%22160%22%20width%3D%22540%22%20height%3D%2210%22%20as%3D%22geometry%22%2F%3E%3C%2FmxCell%3E%3CmxCell%20id%3D%2213%22%20value%3D%22%22%20style%3D%22line%3BstrokeWidth%3D2%3Bhtml%3D1%3BlabelBorderColor%3Dnone%3BfontSize%3D23%3BfillColor%3Ddefault%3BstrokeColor%3D%23030202%3B%22%20vertex%3D%221%22%20parent%3D%221%22%3E%3CmxGeometry%20x%3D%22690%22%20y%3D%22240%22%20width%3D%22540%22%20height%3D%2210%22%20as%3D%22geometry%22%2F%3E%3C%2FmxCell%3E%3CmxCell%20id%3D%2214%22%20style%3D%22edgeStyle%3Dnone%3Bhtml%3D1%3BexitX%3D0%3BexitY%3D0.5%3BexitDx%3D0%3BexitDy%3D0%3BexitPerimeter%3D0%3BstrokeColor%3D%23030303%3BfontSize%3D23%3BfontColor%3D%23030303%3BendArrow%3Dnone%3BendFill%3D0%3BentryX%3D0.75%3BentryY%3D0.5%3BentryDx%3D0%3BentryDy%3D0%3BentryPerimeter%3D0%3B%22%20edge%3D%221%22%20source%3D%2215%22%20target%3D%2219%22%20parent%3D%221%22%3E%3CmxGeometry%20relative%3D%221%22%20as%3D%22geometry%22%2F%3E%3C%2FmxCell%3E%3CmxCell%20id%3D%2215%22%20value%3D%22%22%20style%3D%22line%3BstrokeWidth%3D2%3Bhtml%3D1%3BlabelBorderColor%3Dnone%3BfontSize%3D23%3BfillColor%3Ddefault%3BstrokeColor%3D%23030202%3B%22%20vertex%3D%221%22%20parent%3D%221%22%3E%3CmxGeometry%20x%3D%22690%22%20y%3D%22320%22%20width%3D%22440%22%20height%3D%2210%22%20as%3D%22geometry%22%2F%3E%3C%2FmxCell%3E%3CmxCell%20id%3D%2216%22%20style%3D%22edgeStyle%3Dnone%3Bhtml%3D1%3BexitX%3D0.25%3BexitY%3D0.5%3BexitDx%3D0%3BexitDy%3D0%3BexitPerimeter%3D0%3BentryX%3D0.75%3BentryY%3D0.5%3BentryDx%3D0%3BentryDy%3D0%3BentryPerimeter%3D0%3BstrokeColor%3D%23030303%3BfontSize%3D23%3BfontColor%3D%23030303%3BendArrow%3Dnone%3BendFill%3D0%3B%22%20edge%3D%221%22%20source%3D%2217%22%20target%3D%2219%22%20parent%3D%221%22%3E%3CmxGeometry%20relative%3D%221%22%20as%3D%22geometry%22%2F%3E%3C%2FmxCell%3E%3CmxCell%20id%3D%2217%22%20value%3D%22%22%20style%3D%22line%3BstrokeWidth%3D2%3Bhtml%3D1%3BlabelBorderColor%3Dnone%3BfontSize%3D23%3BfillColor%3Ddefault%3BstrokeColor%3D%23030202%3Bdirection%3Dsouth%3B%22%20vertex%3D%221%22%20parent%3D%221%22%3E%3CmxGeometry%20x%3D%221125%22%20y%3D%22243%22%20width%3D%2210%22%20height%3D%22332%22%20as%3D%22geometry%22%2F%3E%3C%2FmxCell%3E%3CmxCell%20id%3D%2218%22%20style%3D%22edgeStyle%3Dnone%3Bhtml%3D1%3BexitX%3D0%3BexitY%3D0.5%3BexitDx%3D0%3BexitDy%3D0%3BexitPerimeter%3D0%3BentryX%3D0.621%3BentryY%3D0.6%3BentryDx%3D0%3BentryDy%3D0%3BentryPerimeter%3D0%3BstrokeColor%3D%23030303%3BfontSize%3D23%3BfontColor%3D%23030303%3BendArrow%3Dnone%3BendFill%3D0%3B%22%20edge%3D%221%22%20source%3D%2219%22%20target%3D%2225%22%20parent%3D%221%22%3E%3CmxGeometry%20relative%3D%221%22%20as%3D%22geometry%22%2F%3E%3C%2FmxCell%3E%3CmxCell%20id%3D%2219%22%20value%3D%22%22%20style%3D%22line%3BstrokeWidth%3D2%3Bhtml%3D1%3BlabelBorderColor%3Dnone%3BfontSize%3D23%3BfillColor%3Ddefault%3BstrokeColor%3D%23030202%3B%22%20vertex%3D%221%22%20parent%3D%221%22%3E%3CmxGeometry%20x%3D%22690%22%20y%3D%22401.5%22%20width%3D%22440%22%20height%3D%2210%22%20as%3D%22geometry%22%2F%3E%3C%2FmxCell%3E%3CmxCell%20id%3D%2220%22%20value%3D%22F%22%20style%3D%22text%3Bhtml%3D1%3Balign%3Dcenter%3BverticalAlign%3Dmiddle%3Bresizable%3D0%3Bpoints%3D%5B%5D%3Bautosize%3D1%3BstrokeColor%3Dnone%3BfillColor%3Dnone%3BfontSize%3D23%3BfontColor%3D%23030303%3B%22%20vertex%3D%221%22%20parent%3D%221%22%3E%3CmxGeometry%20x%3D%221080%22%20y%3D%22361.5%22%20width%3D%2240%22%20height%3D%2240%22%20as%3D%22geometry%22%2F%3E%3C%2FmxCell%3E%3CmxCell%20id%3D%2221%22%20value%3D%22T%22%20style%3D%22text%3Bhtml%3D1%3Balign%3Dcenter%3BverticalAlign%3Dmiddle%3Bresizable%3D0%3Bpoints%3D%5B%5D%3Bautosize%3D1%3BstrokeColor%3Dnone%3BfillColor%3Dnone%3BfontSize%3D23%3BfontColor%3D%23030303%3B%22%20vertex%3D%221%22%20parent%3D%221%22%3E%3CmxGeometry%20x%3D%22730%22%20y%3D%22350%22%20width%3D%2240%22%20height%3D%2240%22%20as%3D%22geometry%22%2F%3E%3C%2FmxCell%3E%3CmxCell%20id%3D%2222%22%20style%3D%22edgeStyle%3Dnone%3Bhtml%3D1%3BexitX%3D0%3BexitY%3D0.5%3BexitDx%3D0%3BexitDy%3D0%3BexitPerimeter%3D0%3BentryX%3D0.621%3BentryY%3D0.8%3BentryDx%3D0%3BentryDy%3D0%3BentryPerimeter%3D0%3BstrokeColor%3D%23030303%3BfontSize%3D23%3BfontColor%3D%23030303%3BendArrow%3Dnone%3BendFill%3D0%3B%22%20edge%3D%221%22%20source%3D%2223%22%20target%3D%2225%22%20parent%3D%221%22%3E%3CmxGeometry%20relative%3D%221%22%20as%3D%22geometry%22%2F%3E%3C%2FmxCell%3E%3CmxCell%20id%3D%2223%22%20value%3D%22%22%20style%3D%22line%3BstrokeWidth%3D2%3Bhtml%3D1%3BlabelBorderColor%3Dnone%3BfontSize%3D23%3BfillColor%3Ddefault%3BstrokeColor%3D%23030202%3Bdirection%3Dsouth%3B%22%20vertex%3D%221%22%20parent%3D%221%22%3E%3CmxGeometry%20x%3D%221016%22%20y%3D%22407%22%20width%3D%2210%22%20height%3D%22167%22%20as%3D%22geometry%22%2F%3E%3C%2FmxCell%3E%3CmxCell%20id%3D%2224%22%20value%3D%22%E8%AF%A5%E9%A1%B9%E7%9B%AE%E5%BC%80%E5%A7%8B%E4%BA%86%E5%90%97%22%20style%3D%22text%3Bhtml%3D1%3Balign%3Dcenter%3BverticalAlign%3Dmiddle%3Bresizable%3D0%3Bpoints%3D%5B%5D%3Bautosize%3D1%3BstrokeColor%3Dnone%3BfillColor%3Dnone%3BfontSize%3D23%3BfontColor%3D%23030303%3B%22%20vertex%3D%221%22%20parent%3D%221%22%3E%3CmxGeometry%20x%3D%22790%22%20y%3D%22411.5%22%20width%3D%22180%22%20height%3D%2240%22%20as%3D%22geometry%22%2F%3E%3C%2FmxCell%3E%3CmxCell%20id%3D%2225%22%20value%3D%22%22%20style%3D%22line%3BstrokeWidth%3D2%3Bhtml%3D1%3BlabelBorderColor%3Dnone%3BfontSize%3D23%3BfillColor%3Ddefault%3BstrokeColor%3D%23030202%3B%22%20vertex%3D%221%22%20parent%3D%221%22%3E%3CmxGeometry%20x%3D%22690%22%20y%3D%22470%22%20width%3D%22330%22%20height%3D%2210%22%20as%3D%22geometry%22%2F%3E%3C%2FmxCell%3E%3CmxCell%20id%3D%2226%22%20value%3D%22%22%20style%3D%22line%3BstrokeWidth%3D2%3Bhtml%3D1%3BlabelBorderColor%3Dnone%3BfontSize%3D23%3BfillColor%3Ddefault%3BstrokeColor%3D%23030202%3Bdirection%3Dsouth%3B%22%20vertex%3D%221%22%20parent%3D%221%22%3E%3CmxGeometry%20x%3D%22892%22%20y%3D%22473%22%20width%3D%2210%22%20height%3D%22103%22%20as%3D%22geometry%22%2F%3E%3C%2FmxCell%3E%3CmxCell%20id%3D%2227%22%20value%3D%22F%22%20style%3D%22text%3Bhtml%3D1%3Balign%3Dcenter%3BverticalAlign%3Dmiddle%3Bresizable%3D0%3Bpoints%3D%5B%5D%3Bautosize%3D1%3BstrokeColor%3Dnone%3BfillColor%3Dnone%3BfontSize%3D23%3BfontColor%3D%23030303%3B%22%20vertex%3D%221%22%20parent%3D%221%22%3E%3CmxGeometry%20x%3D%22970%22%20y%3D%22440%22%20width%3D%2240%22%20height%3D%2240%22%20as%3D%22geometry%22%2F%3E%3C%2FmxCell%3E%3CmxCell%20id%3D%2228%22%20value%3D%22T%22%20style%3D%22text%3Bhtml%3D1%3Balign%3Dcenter%3BverticalAlign%3Dmiddle%3Bresizable%3D0%3Bpoints%3D%5B%5D%3Bautosize%3D1%3BstrokeColor%3Dnone%3BfillColor%3Dnone%3BfontSize%3D23%3BfontColor%3D%23030303%3B%22%20vertex%3D%221%22%20parent%3D%221%22%3E%3CmxGeometry%20x%3D%22720%22%20y%3D%22430%22%20width%3D%2240%22%20height%3D%2240%22%20as%3D%22geometry%22%2F%3E%3C%2FmxCell%3E%3CmxCell%20id%3D%2229%22%20value%3D%22%22%20style%3D%22line%3BstrokeWidth%3D2%3Bhtml%3D1%3BlabelBorderColor%3Dnone%3BfontSize%3D23%3BfillColor%3Ddefault%3BstrokeColor%3D%23030202%3B%22%20vertex%3D%221%22%20parent%3D%221%22%3E%3CmxGeometry%20x%3D%22690%22%20y%3D%22570%22%20width%3D%22540%22%20height%3D%2210%22%20as%3D%22geometry%22%2F%3E%3C%2FmxCell%3E%3CmxCell%20id%3D%2230%22%20value%3D%22%E7%A1%AE%E8%AE%A4%E9%A1%B9%E7%9B%AE%E5%BC%80%E5%A7%8B%22%20style%3D%22text%3Bhtml%3D1%3Balign%3Dcenter%3BverticalAlign%3Dmiddle%3Bresizable%3D0%3Bpoints%3D%5B%5D%3Bautosize%3D1%3BstrokeColor%3Dnone%3BfillColor%3Dnone%3BfontSize%3D23%3BfontColor%3D%23030303%3B%22%20vertex%3D%221%22%20parent%3D%221%22%3E%3CmxGeometry%20x%3D%22720%22%20y%3D%22510%22%20width%3D%22160%22%20height%3D%2240%22%20as%3D%22geometry%22%2F%3E%3C%2FmxCell%3E%3CmxCell%20id%3D%2231%22%20value%3D%22%E7%BB%93%E6%9D%9F%22%20style%3D%22text%3Bhtml%3D1%3Balign%3Dcenter%3BverticalAlign%3Dmiddle%3Bresizable%3D0%3Bpoints%3D%5B%5D%3Bautosize%3D1%3BstrokeColor%3Dnone%3BfillColor%3Dnone%3BfontSize%3D23%3BfontColor%3D%23030303%3B%22%20vertex%3D%221%22%20parent%3D%221%22%3E%3CmxGeometry%20x%3D%22910%22%20y%3D%22590%22%20width%3D%2270%22%20height%3D%2240%22%20as%3D%22geometry%22%2F%3E%3C%2FmxCell%3E%3CmxCell%20id%3D%2232%22%20value%3D%22%E4%B8%8D%E5%81%9A%E5%A4%84%E7%90%86%22%20style%3D%22text%3Bhtml%3D1%3Balign%3Dcenter%3BverticalAlign%3Dmiddle%3Bresizable%3D0%3Bpoints%3D%5B%5D%3Bautosize%3D1%3BstrokeColor%3Dnone%3BfillColor%3Dnone%3BfontSize%3D23%3BfontColor%3D%23030303%3B%22%20vertex%3D%221%22%20parent%3D%221%22%3E%3CmxGeometry%20x%3D%221120%22%20y%3D%22407%22%20width%3D%22120%22%20height%3D%2240%22%20as%3D%22geometry%22%2F%3E%3C%2FmxCell%3E%3CmxCell%20id%3D%2233%22%20value%3D%22%E4%B8%8D%E5%81%9A%E5%A4%84%E7%90%86%22%20style%3D%22text%3Bhtml%3D1%3Balign%3Dcenter%3BverticalAlign%3Dmiddle%3Bresizable%3D0%3Bpoints%3D%5B%5D%3Bautosize%3D1%3BstrokeColor%3Dnone%3BfillColor%3Dnone%3BfontSize%3D23%3BfontColor%3D%23030303%3B%22%20vertex%3D%221%22%20parent%3D%221%22%3E%3CmxGeometry%20x%3D%221015%22%20y%3D%22473%22%20width%3D%22120%22%20height%3D%2240%22%20as%3D%22geometry%22%2F%3E%3C%2FmxCell%3E%3CmxCell%20id%3D%2234%22%20value%3D%22%E4%B8%8D%E5%81%9A%E5%A4%84%E7%90%86%22%20style%3D%22text%3Bhtml%3D1%3Balign%3Dcenter%3BverticalAlign%3Dmiddle%3Bresizable%3D0%3Bpoints%3D%5B%5D%3Bautosize%3D1%3BstrokeColor%3Dnone%3BfillColor%3Dnone%3BfontSize%3D23%3BfontColor%3D%23030303%3B%22%20vertex%3D%221%22%20parent%3D%221%22%3E%3CmxGeometry%20x%3D%22896%22%20y%3D%22513%22%20width%3D%22120%22%20height%3D%2240%22%20as%3D%22geometry%22%2F%3E%3C%2FmxCell%3E%3C%2Froot%3E%3C%2FmxGraphModel%3E&lt;/span&gt;&lt;/div&gt;" style="text;html=1;align=center;verticalAlign=middle;resizable=0;points=[];autosize=1;strokeColor=none;fillColor=none;fontSize=23;fontColor=#030303;" parent="1" vertex="1">
                    <mxGeometry x="190" y="1330" width="140" height="40" as="geometry"/>
                </mxCell>
                <mxCell id="159" value="结束" style="text;html=1;align=center;verticalAlign=middle;resizable=0;points=[];autosize=1;strokeColor=none;fillColor=none;fontSize=23;fontColor=#030303;" parent="1" vertex="1">
                    <mxGeometry x="370" y="1410" width="70" height="40" as="geometry"/>
                </mxCell>
                <mxCell id="160" value="不做处理" style="text;html=1;align=center;verticalAlign=middle;resizable=0;points=[];autosize=1;strokeColor=none;fillColor=none;fontSize=23;fontColor=#030303;" parent="1" vertex="1">
                    <mxGeometry x="580" y="1227" width="120" height="40" as="geometry"/>
                </mxCell>
                <mxCell id="161" value="不做处理" style="text;html=1;align=center;verticalAlign=middle;resizable=0;points=[];autosize=1;strokeColor=none;fillColor=none;fontSize=23;fontColor=#030303;" parent="1" vertex="1">
                    <mxGeometry x="475" y="1293" width="120" height="40" as="geometry"/>
                </mxCell>
                <mxCell id="162" value="不做处理" style="text;html=1;align=center;verticalAlign=middle;resizable=0;points=[];autosize=1;strokeColor=none;fillColor=none;fontSize=23;fontColor=#030303;" parent="1" vertex="1">
                    <mxGeometry x="356" y="1333" width="120" height="40" as="geometry"/>
                </mxCell>
                <mxCell id="163" value="" style="rounded=0;whiteSpace=wrap;html=1;fillColor=#f9f7ed;strokeColor=#36393d;" parent="1" vertex="1">
                    <mxGeometry x="850" y="920" width="540" height="540" as="geometry"/>
                </mxCell>
                <mxCell id="164" value="&lt;span style=&quot;font-size: 23px;&quot;&gt;查询流程&lt;/span&gt;" style="text;html=1;align=center;verticalAlign=middle;resizable=0;points=[];autosize=1;strokeColor=none;fillColor=none;labelBorderColor=none;fontStyle=0;fontColor=#030303;" parent="1" vertex="1">
                    <mxGeometry x="1070" y="930" width="120" height="40" as="geometry"/>
                </mxCell>
                <mxCell id="165" value="" style="shape=stencil(fZbdcgIhDIWfZm8zQAg/17Z9j85U606tdqz9e/tmZ0c0uJ47xP0I5JwEBl59bp8/1kNwn6fj4W39M76ctgM/DCGM++36OJ50NPDjwKvN4bh+PR6+9i/z74/n6ctp9H74nlb4nbmSKZeJCu5vngmZ6jzzNAO7cX8FVKEsBuBKrgKg9oAE8gkCbLeUhEoEQKSUDZDLeWYRKIl8MEDRmHwfyBrBG6Amyu4+kDxxMoB3jhwgYu7TVAsVkFcWCs4CTBEoF4RctKeOxHIf8IXYpikHikAIf+MNUW94AGSSaoAoFIE3AlOyeWU+p2E5S9yfQZcQILVuQOwZdJNoS9Ls3wA5u2XZTIHECqeJ9kDpSaauRiNVcAY1QhdBzeLBli5WazpkSsBLV25uRaqWRyFawTQzRRIQYirJzq5atkBqLfouwqUxLBepthWb10vrWZY6UOAeyKCCtDV625mm9gmUC4Wc3VLJMMIE1BsA2FW9JraVlQB7n3c9oMKhCLEvIM1zBPZ25/umNQ1tVEC2G+fFCC8g398O2hNQuQlVu752DBfA+q0ptnqO5JFmeuIuo9DY7KjY71UxdJV4EntifPWorW++R/dC4t7V3DlIB5cHx2bc7eb3yvX//QNFp+bHDT/+Aw==);lineShape=1;labelBorderColor=none;fontSize=23;fontColor=#030303;" parent="1" vertex="1">
                    <mxGeometry x="1108.867960842476" y="1184.8753124585194" width="4.672539772115215" height="4.665236216357243" as="geometry"/>
                </mxCell>
                <mxCell id="166" value="该流程存在么" style="text;html=1;align=center;verticalAlign=middle;resizable=0;points=[];autosize=1;strokeColor=none;fillColor=none;fontSize=23;fontColor=#030303;" parent="1" vertex="1">
                    <mxGeometry x="1150" y="1000" width="160" height="40" as="geometry"/>
                </mxCell>
                <mxCell id="167" value="T" style="text;html=1;align=center;verticalAlign=middle;resizable=0;points=[];autosize=1;strokeColor=none;fillColor=none;fontSize=23;fontColor=#030303;" parent="1" vertex="1">
                    <mxGeometry x="870" y="1010" width="40" height="40" as="geometry"/>
                </mxCell>
                <mxCell id="168" value="F" style="text;html=1;align=center;verticalAlign=middle;resizable=0;points=[];autosize=1;strokeColor=none;fillColor=none;fontSize=23;fontColor=#030303;" parent="1" vertex="1">
                    <mxGeometry x="1340" y="1020" width="40" height="40" as="geometry"/>
                </mxCell>
                <mxCell id="169" value="查询目标项目" style="text;html=1;align=center;verticalAlign=middle;resizable=0;points=[];autosize=1;strokeColor=none;fillColor=none;fontSize=23;fontColor=#030303;" parent="1" vertex="1">
                    <mxGeometry x="990" y="1085" width="160" height="40" as="geometry"/>
                </mxCell>
                <mxCell id="170" value="该项目存在么" style="text;html=1;align=center;verticalAlign=middle;resizable=0;points=[];autosize=1;strokeColor=none;fillColor=none;fontSize=23;fontColor=#030303;" parent="1" vertex="1">
                    <mxGeometry x="1050" y="1160" width="160" height="40" as="geometry"/>
                </mxCell>
                <mxCell id="171" style="edgeStyle=none;html=1;exitX=0;exitY=0.5;exitDx=0;exitDy=0;exitPerimeter=0;entryX=0.817;entryY=0.4;entryDx=0;entryDy=0;entryPerimeter=0;strokeColor=#030303;fontSize=23;fontColor=#030303;endArrow=none;endFill=0;" parent="1" source="173" target="174" edge="1">
                    <mxGeometry relative="1" as="geometry"/>
                </mxCell>
                <mxCell id="172" style="edgeStyle=none;html=1;exitX=1;exitY=0.5;exitDx=0;exitDy=0;exitPerimeter=0;entryX=0.811;entryY=0.8;entryDx=0;entryDy=0;entryPerimeter=0;strokeColor=#030303;fontSize=23;fontColor=#030303;endArrow=none;endFill=0;" parent="1" source="173" target="174" edge="1">
                    <mxGeometry relative="1" as="geometry"/>
                </mxCell>
                <mxCell id="173" value="" style="line;strokeWidth=2;html=1;labelBorderColor=none;fontSize=23;fillColor=default;strokeColor=#030202;" parent="1" vertex="1">
                    <mxGeometry x="850" y="980" width="540" height="10" as="geometry"/>
                </mxCell>
                <mxCell id="174" value="" style="line;strokeWidth=2;html=1;labelBorderColor=none;fontSize=23;fillColor=default;strokeColor=#030202;" parent="1" vertex="1">
                    <mxGeometry x="850" y="1060" width="540" height="10" as="geometry"/>
                </mxCell>
                <mxCell id="175" style="edgeStyle=none;html=1;exitX=0;exitY=0.5;exitDx=0;exitDy=0;exitPerimeter=0;strokeColor=#030303;fontSize=23;fontColor=#030303;endArrow=none;endFill=0;entryX=0.75;entryY=0.5;entryDx=0;entryDy=0;entryPerimeter=0;" parent="1" source="176" target="180" edge="1">
                    <mxGeometry relative="1" as="geometry"/>
                </mxCell>
                <mxCell id="176" value="" style="line;strokeWidth=2;html=1;labelBorderColor=none;fontSize=23;fillColor=default;strokeColor=#030202;" parent="1" vertex="1">
                    <mxGeometry x="850" y="1140" width="440" height="10" as="geometry"/>
                </mxCell>
                <mxCell id="177" style="edgeStyle=none;html=1;exitX=0.25;exitY=0.5;exitDx=0;exitDy=0;exitPerimeter=0;entryX=0.75;entryY=0.5;entryDx=0;entryDy=0;entryPerimeter=0;strokeColor=#030303;fontSize=23;fontColor=#030303;endArrow=none;endFill=0;" parent="1" source="178" target="180" edge="1">
                    <mxGeometry relative="1" as="geometry"/>
                </mxCell>
                <mxCell id="178" value="" style="line;strokeWidth=2;html=1;labelBorderColor=none;fontSize=23;fillColor=default;strokeColor=#030202;direction=south;" parent="1" vertex="1">
                    <mxGeometry x="1285" y="1063" width="10" height="332" as="geometry"/>
                </mxCell>
                <mxCell id="179" style="edgeStyle=none;html=1;exitX=0;exitY=0.5;exitDx=0;exitDy=0;exitPerimeter=0;entryX=0.621;entryY=0.6;entryDx=0;entryDy=0;entryPerimeter=0;strokeColor=#030303;fontSize=23;fontColor=#030303;endArrow=none;endFill=0;" parent="1" source="180" target="186" edge="1">
                    <mxGeometry relative="1" as="geometry"/>
                </mxCell>
                <mxCell id="180" value="" style="line;strokeWidth=2;html=1;labelBorderColor=none;fontSize=23;fillColor=default;strokeColor=#030202;" parent="1" vertex="1">
                    <mxGeometry x="850" y="1221.5" width="440" height="10" as="geometry"/>
                </mxCell>
                <mxCell id="181" value="F" style="text;html=1;align=center;verticalAlign=middle;resizable=0;points=[];autosize=1;strokeColor=none;fillColor=none;fontSize=23;fontColor=#030303;" parent="1" vertex="1">
                    <mxGeometry x="1240" y="1181.5" width="40" height="40" as="geometry"/>
                </mxCell>
                <mxCell id="182" value="T" style="text;html=1;align=center;verticalAlign=middle;resizable=0;points=[];autosize=1;strokeColor=none;fillColor=none;fontSize=23;fontColor=#030303;" parent="1" vertex="1">
                    <mxGeometry x="890" y="1170" width="40" height="40" as="geometry"/>
                </mxCell>
                <mxCell id="183" style="edgeStyle=none;html=1;exitX=0;exitY=0.5;exitDx=0;exitDy=0;exitPerimeter=0;entryX=0.621;entryY=0.8;entryDx=0;entryDy=0;entryPerimeter=0;strokeColor=#030303;fontSize=23;fontColor=#030303;endArrow=none;endFill=0;" parent="1" source="184" target="186" edge="1">
                    <mxGeometry relative="1" as="geometry"/>
                </mxCell>
                <mxCell id="184" value="" style="line;strokeWidth=2;html=1;labelBorderColor=none;fontSize=23;fillColor=default;strokeColor=#030202;direction=south;" parent="1" vertex="1">
                    <mxGeometry x="1176" y="1227" width="10" height="167" as="geometry"/>
                </mxCell>
                <mxCell id="185" value="该项目结束了吗" style="text;html=1;align=center;verticalAlign=middle;resizable=0;points=[];autosize=1;strokeColor=none;fillColor=none;fontSize=23;fontColor=#030303;" parent="1" vertex="1">
                    <mxGeometry x="950" y="1231.5" width="180" height="40" as="geometry"/>
                </mxCell>
                <mxCell id="186" value="" style="line;strokeWidth=2;html=1;labelBorderColor=none;fontSize=23;fillColor=default;strokeColor=#030202;" parent="1" vertex="1">
                    <mxGeometry x="850" y="1290" width="330" height="10" as="geometry"/>
                </mxCell>
                <mxCell id="187" value="" style="line;strokeWidth=2;html=1;labelBorderColor=none;fontSize=23;fillColor=default;strokeColor=#030202;direction=south;" parent="1" vertex="1">
                    <mxGeometry x="1052" y="1293" width="10" height="103" as="geometry"/>
                </mxCell>
                <mxCell id="188" value="F" style="text;html=1;align=center;verticalAlign=middle;resizable=0;points=[];autosize=1;strokeColor=none;fillColor=none;fontSize=23;fontColor=#030303;" parent="1" vertex="1">
                    <mxGeometry x="1130" y="1260" width="40" height="40" as="geometry"/>
                </mxCell>
                <mxCell id="189" value="T" style="text;html=1;align=center;verticalAlign=middle;resizable=0;points=[];autosize=1;strokeColor=none;fillColor=none;fontSize=23;fontColor=#030303;" parent="1" vertex="1">
                    <mxGeometry x="880" y="1250" width="40" height="40" as="geometry"/>
                </mxCell>
                <mxCell id="190" value="" style="line;strokeWidth=2;html=1;labelBorderColor=none;fontSize=23;fillColor=default;strokeColor=#030202;" parent="1" vertex="1">
                    <mxGeometry x="850" y="1390" width="540" height="10" as="geometry"/>
                </mxCell>
                <mxCell id="191" value="结束该项目" style="text;html=1;align=center;verticalAlign=middle;resizable=0;points=[];autosize=1;strokeColor=none;fillColor=none;fontSize=23;fontColor=#030303;" parent="1" vertex="1">
                    <mxGeometry x="890" y="1330" width="140" height="40" as="geometry"/>
                </mxCell>
                <mxCell id="192" value="结束" style="text;html=1;align=center;verticalAlign=middle;resizable=0;points=[];autosize=1;strokeColor=none;fillColor=none;fontSize=23;fontColor=#030303;" parent="1" vertex="1">
                    <mxGeometry x="1070" y="1410" width="70" height="40" as="geometry"/>
                </mxCell>
                <mxCell id="193" value="不做处理" style="text;html=1;align=center;verticalAlign=middle;resizable=0;points=[];autosize=1;strokeColor=none;fillColor=none;fontSize=23;fontColor=#030303;" parent="1" vertex="1">
                    <mxGeometry x="1280" y="1227" width="120" height="40" as="geometry"/>
                </mxCell>
                <mxCell id="194" value="不做处理" style="text;html=1;align=center;verticalAlign=middle;resizable=0;points=[];autosize=1;strokeColor=none;fillColor=none;fontSize=23;fontColor=#030303;" parent="1" vertex="1">
                    <mxGeometry x="1175" y="1293" width="120" height="40" as="geometry"/>
                </mxCell>
                <mxCell id="195" value="不做处理" style="text;html=1;align=center;verticalAlign=middle;resizable=0;points=[];autosize=1;strokeColor=none;fillColor=none;fontSize=23;fontColor=#030303;" parent="1" vertex="1">
                    <mxGeometry x="1056" y="1333" width="120" height="40" as="geometry"/>
                </mxCell>
                <mxCell id="196" value="" style="rounded=0;whiteSpace=wrap;html=1;fillColor=#f9f7ed;strokeColor=#36393d;" parent="1" vertex="1">
                    <mxGeometry x="1550" y="917" width="400" height="310" as="geometry"/>
                </mxCell>
                <mxCell id="198" value="" style="shape=stencil(fZbdcgIhDIWfZm8zQAg/17Z9j85U606tdqz9e/tmZ0c0uJ47xP0I5JwEBl59bp8/1kNwn6fj4W39M76ctgM/DCGM++36OJ50NPDjwKvN4bh+PR6+9i/z74/n6ctp9H74nlb4nbmSKZeJCu5vngmZ6jzzNAO7cX8FVKEsBuBKrgKg9oAE8gkCbLeUhEoEQKSUDZDLeWYRKIl8MEDRmHwfyBrBG6Amyu4+kDxxMoB3jhwgYu7TVAsVkFcWCs4CTBEoF4RctKeOxHIf8IXYpikHikAIf+MNUW94AGSSaoAoFIE3AlOyeWU+p2E5S9yfQZcQILVuQOwZdJNoS9Ls3wA5u2XZTIHECqeJ9kDpSaauRiNVcAY1QhdBzeLBli5WazpkSsBLV25uRaqWRyFawTQzRRIQYirJzq5atkBqLfouwqUxLBepthWb10vrWZY6UOAeyKCCtDV625mm9gmUC4Wc3VLJMMIE1BsA2FW9JraVlQB7n3c9oMKhCLEvIM1zBPZ25/umNQ1tVEC2G+fFCC8g398O2hNQuQlVu752DBfA+q0ptnqO5JFmeuIuo9DY7KjY71UxdJV4EntifPWorW++R/dC4t7V3DlIB5cHx2bc7eb3yvX//QNFp+bHDT/+Aw==);lineShape=1;labelBorderColor=none;fontSize=23;fontColor=#030303;" parent="1" vertex="1">
                    <mxGeometry x="1808.867960842476" y="1181.8753124585194" width="4.672539772115215" height="4.665236216357243" as="geometry"/>
                </mxCell>
                <mxCell id="203" value="结束" style="text;html=1;align=center;verticalAlign=middle;resizable=0;points=[];autosize=1;strokeColor=none;fillColor=none;fontSize=23;fontColor=#030303;" parent="1" vertex="1">
                    <mxGeometry x="1710" y="1167" width="70" height="40" as="geometry"/>
                </mxCell>
                <mxCell id="207" value="" style="line;strokeWidth=2;html=1;labelBorderColor=none;fontSize=23;fillColor=default;strokeColor=#030202;" parent="1" vertex="1">
                    <mxGeometry x="1550" y="1030" width="400" height="10" as="geometry"/>
                </mxCell>
                <mxCell id="208" value="" style="line;strokeWidth=2;html=1;labelBorderColor=none;fontSize=23;fillColor=default;strokeColor=#030202;" parent="1" vertex="1">
                    <mxGeometry x="1550" y="1137" width="400" height="10" as="geometry"/>
                </mxCell>
                <mxCell id="212" value="查找可开启的流程/项目" style="text;html=1;align=center;verticalAlign=middle;resizable=0;points=[];autosize=1;strokeColor=none;fillColor=none;fontSize=23;fontColor=#030303;" parent="1" vertex="1">
                    <mxGeometry x="1620" y="960" width="260" height="40" as="geometry"/>
                </mxCell>
                <mxCell id="213" value="返回可开启的流程/项目" style="text;html=1;align=center;verticalAlign=middle;resizable=0;points=[];autosize=1;strokeColor=none;fillColor=none;fontSize=23;fontColor=#030303;" parent="1" vertex="1">
                    <mxGeometry x="1618.87" y="1070" width="260" height="40" as="geometry"/>
                </mxCell>
                <mxCell id="241" value="" style="rounded=0;whiteSpace=wrap;html=1;fillColor=#f9f7ed;strokeColor=#36393d;" parent="1" vertex="1">
                    <mxGeometry x="2110" y="920" width="540" height="540" as="geometry"/>
                </mxCell>
                <mxCell id="242" value="&lt;span style=&quot;font-size: 23px;&quot;&gt;查询病人&lt;/span&gt;" style="text;html=1;align=center;verticalAlign=middle;resizable=0;points=[];autosize=1;strokeColor=none;fillColor=none;labelBorderColor=none;fontStyle=0;fontColor=#030303;" parent="1" vertex="1">
                    <mxGeometry x="2330" y="930" width="120" height="40" as="geometry"/>
                </mxCell>
                <mxCell id="243" value="" style="shape=stencil(fZbdcgIhDIWfZm8zQAg/17Z9j85U606tdqz9e/tmZ0c0uJ47xP0I5JwEBl59bp8/1kNwn6fj4W39M76ctgM/DCGM++36OJ50NPDjwKvN4bh+PR6+9i/z74/n6ctp9H74nlb4nbmSKZeJCu5vngmZ6jzzNAO7cX8FVKEsBuBKrgKg9oAE8gkCbLeUhEoEQKSUDZDLeWYRKIl8MEDRmHwfyBrBG6Amyu4+kDxxMoB3jhwgYu7TVAsVkFcWCs4CTBEoF4RctKeOxHIf8IXYpikHikAIf+MNUW94AGSSaoAoFIE3AlOyeWU+p2E5S9yfQZcQILVuQOwZdJNoS9Ls3wA5u2XZTIHECqeJ9kDpSaauRiNVcAY1QhdBzeLBli5WazpkSsBLV25uRaqWRyFawTQzRRIQYirJzq5atkBqLfouwqUxLBepthWb10vrWZY6UOAeyKCCtDV625mm9gmUC4Wc3VLJMMIE1BsA2FW9JraVlQB7n3c9oMKhCLEvIM1zBPZ25/umNQ1tVEC2G+fFCC8g398O2hNQuQlVu752DBfA+q0ptnqO5JFmeuIuo9DY7KjY71UxdJV4EntifPWorW++R/dC4t7V3DlIB5cHx2bc7eb3yvX//QNFp+bHDT/+Aw==);lineShape=1;labelBorderColor=none;fontSize=23;fontColor=#030303;" parent="1" vertex="1">
                    <mxGeometry x="2368.867960842476" y="1184.8753124585194" width="4.672539772115215" height="4.665236216357243" as="geometry"/>
                </mxCell>
                <mxCell id="244" value="该病人存在么" style="text;html=1;align=center;verticalAlign=middle;resizable=0;points=[];autosize=1;strokeColor=none;fillColor=none;fontSize=23;fontColor=#030303;" parent="1" vertex="1">
                    <mxGeometry x="2410" y="1000" width="160" height="40" as="geometry"/>
                </mxCell>
                <mxCell id="245" value="T" style="text;html=1;align=center;verticalAlign=middle;resizable=0;points=[];autosize=1;strokeColor=none;fillColor=none;fontSize=23;fontColor=#030303;" parent="1" vertex="1">
                    <mxGeometry x="2130" y="1010" width="40" height="40" as="geometry"/>
                </mxCell>
                <mxCell id="246" value="F" style="text;html=1;align=center;verticalAlign=middle;resizable=0;points=[];autosize=1;strokeColor=none;fillColor=none;fontSize=23;fontColor=#030303;" parent="1" vertex="1">
                    <mxGeometry x="2600" y="1020" width="40" height="40" as="geometry"/>
                </mxCell>
                <mxCell id="247" value="查询病人流程" style="text;html=1;align=center;verticalAlign=middle;resizable=0;points=[];autosize=1;strokeColor=none;fillColor=none;fontSize=23;fontColor=#030303;" parent="1" vertex="1">
                    <mxGeometry x="2250" y="1085" width="160" height="40" as="geometry"/>
                </mxCell>
                <mxCell id="248" value="该病人有流程么" style="text;html=1;align=center;verticalAlign=middle;resizable=0;points=[];autosize=1;strokeColor=none;fillColor=none;fontSize=23;fontColor=#030303;" parent="1" vertex="1">
                    <mxGeometry x="2300" y="1160" width="180" height="40" as="geometry"/>
                </mxCell>
                <mxCell id="249" style="edgeStyle=none;html=1;exitX=0;exitY=0.5;exitDx=0;exitDy=0;exitPerimeter=0;entryX=0.817;entryY=0.4;entryDx=0;entryDy=0;entryPerimeter=0;strokeColor=#030303;fontSize=23;fontColor=#030303;endArrow=none;endFill=0;" parent="1" source="251" target="252" edge="1">
                    <mxGeometry relative="1" as="geometry"/>
                </mxCell>
                <mxCell id="250" style="edgeStyle=none;html=1;exitX=1;exitY=0.5;exitDx=0;exitDy=0;exitPerimeter=0;entryX=0.811;entryY=0.8;entryDx=0;entryDy=0;entryPerimeter=0;strokeColor=#030303;fontSize=23;fontColor=#030303;endArrow=none;endFill=0;" parent="1" source="251" target="252" edge="1">
                    <mxGeometry relative="1" as="geometry"/>
                </mxCell>
                <mxCell id="251" value="" style="line;strokeWidth=2;html=1;labelBorderColor=none;fontSize=23;fillColor=default;strokeColor=#030202;" parent="1" vertex="1">
                    <mxGeometry x="2110" y="980" width="540" height="10" as="geometry"/>
                </mxCell>
                <mxCell id="252" value="" style="line;strokeWidth=2;html=1;labelBorderColor=none;fontSize=23;fillColor=default;strokeColor=#030202;" parent="1" vertex="1">
                    <mxGeometry x="2110" y="1060" width="540" height="10" as="geometry"/>
                </mxCell>
                <mxCell id="253" style="edgeStyle=none;html=1;exitX=0;exitY=0.5;exitDx=0;exitDy=0;exitPerimeter=0;strokeColor=#030303;fontSize=23;fontColor=#030303;endArrow=none;endFill=0;entryX=0.75;entryY=0.5;entryDx=0;entryDy=0;entryPerimeter=0;" parent="1" source="254" target="258" edge="1">
                    <mxGeometry relative="1" as="geometry"/>
                </mxCell>
                <mxCell id="254" value="" style="line;strokeWidth=2;html=1;labelBorderColor=none;fontSize=23;fillColor=default;strokeColor=#030202;" parent="1" vertex="1">
                    <mxGeometry x="2110" y="1140" width="440" height="10" as="geometry"/>
                </mxCell>
                <mxCell id="255" style="edgeStyle=none;html=1;exitX=0.25;exitY=0.5;exitDx=0;exitDy=0;exitPerimeter=0;entryX=0.75;entryY=0.5;entryDx=0;entryDy=0;entryPerimeter=0;strokeColor=#030303;fontSize=23;fontColor=#030303;endArrow=none;endFill=0;" parent="1" source="256" target="258" edge="1">
                    <mxGeometry relative="1" as="geometry"/>
                </mxCell>
                <mxCell id="256" value="" style="line;strokeWidth=2;html=1;labelBorderColor=none;fontSize=23;fillColor=default;strokeColor=#030202;direction=south;" parent="1" vertex="1">
                    <mxGeometry x="2545" y="1063" width="10" height="332" as="geometry"/>
                </mxCell>
                <mxCell id="258" value="" style="line;strokeWidth=2;html=1;labelBorderColor=none;fontSize=23;fillColor=default;strokeColor=#030202;" parent="1" vertex="1">
                    <mxGeometry x="2110" y="1221.5" width="440" height="10" as="geometry"/>
                </mxCell>
                <mxCell id="259" value="F" style="text;html=1;align=center;verticalAlign=middle;resizable=0;points=[];autosize=1;strokeColor=none;fillColor=none;fontSize=23;fontColor=#030303;" parent="1" vertex="1">
                    <mxGeometry x="2500" y="1181.5" width="40" height="40" as="geometry"/>
                </mxCell>
                <mxCell id="260" value="T" style="text;html=1;align=center;verticalAlign=middle;resizable=0;points=[];autosize=1;strokeColor=none;fillColor=none;fontSize=23;fontColor=#030303;" parent="1" vertex="1">
                    <mxGeometry x="2150" y="1170" width="40" height="40" as="geometry"/>
                </mxCell>
                <mxCell id="262" value="" style="line;strokeWidth=2;html=1;labelBorderColor=none;fontSize=23;fillColor=default;strokeColor=#030202;direction=south;" parent="1" vertex="1">
                    <mxGeometry x="2436" y="1227" width="10" height="167" as="geometry"/>
                </mxCell>
                <mxCell id="263" value="查看特定流程" style="text;html=1;align=center;verticalAlign=middle;resizable=0;points=[];autosize=1;strokeColor=none;fillColor=none;fontSize=23;fontColor=#030303;" parent="1" vertex="1">
                    <mxGeometry x="2190" y="1250" width="160" height="40" as="geometry"/>
                </mxCell>
                <mxCell id="264" value="" style="line;strokeWidth=2;html=1;labelBorderColor=none;fontSize=23;fillColor=default;strokeColor=#030202;" parent="1" vertex="1">
                    <mxGeometry x="2110" y="1308" width="330" height="10" as="geometry"/>
                </mxCell>
                <mxCell id="268" value="" style="line;strokeWidth=2;html=1;labelBorderColor=none;fontSize=23;fillColor=default;strokeColor=#030202;" parent="1" vertex="1">
                    <mxGeometry x="2110" y="1390" width="540" height="10" as="geometry"/>
                </mxCell>
                <mxCell id="269" value="返回流程细节" style="text;html=1;align=center;verticalAlign=middle;resizable=0;points=[];autosize=1;strokeColor=none;fillColor=none;fontSize=23;fontColor=#030303;" parent="1" vertex="1">
                    <mxGeometry x="2190" y="1333" width="160" height="40" as="geometry"/>
                </mxCell>
                <mxCell id="270" value="结束" style="text;html=1;align=center;verticalAlign=middle;resizable=0;points=[];autosize=1;strokeColor=none;fillColor=none;fontSize=23;fontColor=#030303;" parent="1" vertex="1">
                    <mxGeometry x="2330" y="1410" width="70" height="40" as="geometry"/>
                </mxCell>
                <mxCell id="271" value="不做处理" style="text;html=1;align=center;verticalAlign=middle;resizable=0;points=[];autosize=1;strokeColor=none;fillColor=none;fontSize=23;fontColor=#030303;" parent="1" vertex="1">
                    <mxGeometry x="2540" y="1227" width="120" height="40" as="geometry"/>
                </mxCell>
                <mxCell id="272" value="不做处理" style="text;html=1;align=center;verticalAlign=middle;resizable=0;points=[];autosize=1;strokeColor=none;fillColor=none;fontSize=23;fontColor=#030303;" parent="1" vertex="1">
                    <mxGeometry x="2435" y="1293" width="120" height="40" as="geometry"/>
                </mxCell>
                <mxCell id="333" style="edgeStyle=none;html=1;exitX=0;exitY=0.25;exitDx=0;exitDy=0;entryX=0.625;entryY=0.8;entryDx=0;entryDy=0;entryPerimeter=0;strokeColor=#030303;fontSize=23;fontColor=#030303;endArrow=none;endFill=0;" parent="1" source="274" target="329" edge="1">
                    <mxGeometry relative="1" as="geometry"/>
                </mxCell>
                <mxCell id="274" value="" style="rounded=0;whiteSpace=wrap;html=1;fillColor=#f9f7ed;strokeColor=#36393d;" parent="1" vertex="1">
                    <mxGeometry x="161" y="1730" width="529" height="530" as="geometry"/>
                </mxCell>
                <mxCell id="275" value="&lt;span style=&quot;font-size: 23px;&quot;&gt;查看当前报道病人&lt;/span&gt;" style="text;html=1;align=center;verticalAlign=middle;resizable=0;points=[];autosize=1;strokeColor=none;fillColor=none;labelBorderColor=none;fontStyle=0;fontColor=#030303;" parent="1" vertex="1">
                    <mxGeometry x="320.5" y="1750" width="210" height="40" as="geometry"/>
                </mxCell>
                <mxCell id="276" value="" style="shape=stencil(fZbdcgIhDIWfZm8zQAg/17Z9j85U606tdqz9e/tmZ0c0uJ47xP0I5JwEBl59bp8/1kNwn6fj4W39M76ctgM/DCGM++36OJ50NPDjwKvN4bh+PR6+9i/z74/n6ctp9H74nlb4nbmSKZeJCu5vngmZ6jzzNAO7cX8FVKEsBuBKrgKg9oAE8gkCbLeUhEoEQKSUDZDLeWYRKIl8MEDRmHwfyBrBG6Amyu4+kDxxMoB3jhwgYu7TVAsVkFcWCs4CTBEoF4RctKeOxHIf8IXYpikHikAIf+MNUW94AGSSaoAoFIE3AlOyeWU+p2E5S9yfQZcQILVuQOwZdJNoS9Ls3wA5u2XZTIHECqeJ9kDpSaauRiNVcAY1QhdBzeLBli5WazpkSsBLV25uRaqWRyFawTQzRRIQYirJzq5atkBqLfouwqUxLBepthWb10vrWZY6UOAeyKCCtDV625mm9gmUC4Wc3VLJMMIE1BsA2FW9JraVlQB7n3c9oMKhCLEvIM1zBPZ25/umNQ1tVEC2G+fFCC8g398O2hNQuQlVu752DBfA+q0ptnqO5JFmeuIuo9DY7KjY71UxdJV4EntifPWorW++R/dC4t7V3DlIB5cHx2bc7eb3yvX//QNFp+bHDT/+Aw==);lineShape=1;labelBorderColor=none;fontSize=23;fontColor=#030303;" parent="1" vertex="1">
                    <mxGeometry x="419.8679608424759" y="1914.8753124585194" width="4.672539772115215" height="4.665236216357243" as="geometry"/>
                </mxCell>
                <mxCell id="284" value="" style="line;strokeWidth=2;html=1;labelBorderColor=none;fontSize=23;fillColor=default;strokeColor=#030202;" parent="1" vertex="1">
                    <mxGeometry x="161" y="1800" width="475" height="10" as="geometry"/>
                </mxCell>
                <mxCell id="289" value="" style="line;strokeWidth=2;html=1;labelBorderColor=none;fontSize=23;fillColor=default;strokeColor=#030202;direction=south;" parent="1" vertex="1">
                    <mxGeometry x="630" y="1730" width="10" height="397" as="geometry"/>
                </mxCell>
                <mxCell id="334" style="edgeStyle=none;html=1;exitX=0;exitY=0.5;exitDx=0;exitDy=0;exitPerimeter=0;entryX=0.472;entryY=0.633;entryDx=0;entryDy=0;entryPerimeter=0;strokeColor=#030303;fontSize=23;fontColor=#030303;endArrow=none;endFill=0;" parent="1" source="291" target="329" edge="1">
                    <mxGeometry relative="1" as="geometry"/>
                </mxCell>
                <mxCell id="291" value="" style="line;strokeWidth=2;html=1;labelBorderColor=none;fontSize=23;fillColor=default;strokeColor=#030202;" parent="1" vertex="1">
                    <mxGeometry x="160" y="1860" width="427" height="10" as="geometry"/>
                </mxCell>
                <mxCell id="332" style="edgeStyle=none;html=1;exitX=0.25;exitY=0.5;exitDx=0;exitDy=0;exitPerimeter=0;entryX=0;entryY=0.5;entryDx=0;entryDy=0;entryPerimeter=0;strokeColor=#030303;fontSize=23;fontColor=#030303;endArrow=none;endFill=0;" parent="1" source="295" target="336" edge="1">
                    <mxGeometry relative="1" as="geometry"/>
                </mxCell>
                <mxCell id="295" value="" style="line;strokeWidth=2;html=1;labelBorderColor=none;fontSize=23;fillColor=default;strokeColor=#030202;direction=south;" parent="1" vertex="1">
                    <mxGeometry x="581" y="1805" width="10" height="245" as="geometry"/>
                </mxCell>
                <mxCell id="296" value="把医生分配&lt;br&gt;给该病人的&lt;br&gt;疗程/项目" style="text;html=1;align=center;verticalAlign=middle;resizable=0;points=[];autosize=1;strokeColor=none;fillColor=none;fontSize=23;fontColor=#030303;" parent="1" vertex="1">
                    <mxGeometry x="190" y="1950" width="140" height="100" as="geometry"/>
                </mxCell>
                <mxCell id="299" value="F" style="text;html=1;align=center;verticalAlign=middle;resizable=0;points=[];autosize=1;strokeColor=none;fillColor=none;fontSize=23;fontColor=#030303;" parent="1" vertex="1">
                    <mxGeometry x="515" y="1900" width="40" height="40" as="geometry"/>
                </mxCell>
                <mxCell id="301" value="" style="line;strokeWidth=2;html=1;labelBorderColor=none;fontSize=23;fillColor=default;strokeColor=#030202;" parent="1" vertex="1">
                    <mxGeometry x="161" y="2120" width="476" height="10" as="geometry"/>
                </mxCell>
                <mxCell id="303" value="是最后一名病人？" style="text;html=1;align=center;verticalAlign=middle;resizable=0;points=[];autosize=1;strokeColor=none;fillColor=none;fontSize=23;fontColor=#030303;" parent="1" vertex="1">
                    <mxGeometry x="335" y="2140" width="210" height="40" as="geometry"/>
                </mxCell>
                <mxCell id="307" value="&lt;span style=&quot;font-size: 23px;&quot;&gt;查看当前报道医生&lt;/span&gt;" style="text;html=1;align=center;verticalAlign=middle;resizable=0;points=[];autosize=1;strokeColor=none;fillColor=none;labelBorderColor=none;fontStyle=0;fontColor=#030303;" parent="1" vertex="1">
                    <mxGeometry x="270" y="1820" width="210" height="40" as="geometry"/>
                </mxCell>
                <mxCell id="310" value="是最后一名报道的医生？" style="text;html=1;align=center;verticalAlign=middle;resizable=0;points=[];autosize=1;strokeColor=none;fillColor=none;fontSize=23;fontColor=#030303;" parent="1" vertex="1">
                    <mxGeometry x="370" y="2060" width="280" height="40" as="geometry"/>
                </mxCell>
                <mxCell id="311" value="" style="line;strokeWidth=2;html=1;labelBorderColor=none;fontSize=23;fillColor=default;strokeColor=#030202;" parent="1" vertex="1">
                    <mxGeometry x="150" y="2190" width="540" height="10" as="geometry"/>
                </mxCell>
                <mxCell id="312" value="结束" style="text;html=1;align=center;verticalAlign=middle;resizable=0;points=[];autosize=1;strokeColor=none;fillColor=none;fontSize=23;fontColor=#030303;" parent="1" vertex="1">
                    <mxGeometry x="400" y="2210" width="70" height="40" as="geometry"/>
                </mxCell>
                <mxCell id="329" value="" style="line;strokeWidth=2;html=1;labelBorderColor=none;fontSize=23;fillColor=default;strokeColor=#030202;" parent="1" vertex="1">
                    <mxGeometry x="162" y="1940" width="427" height="10" as="geometry"/>
                </mxCell>
                <mxCell id="330" value="&lt;span style=&quot;font-size: 23px;&quot;&gt;该医生能负责这个病人&lt;br&gt;的流程么&lt;/span&gt;" style="text;html=1;align=center;verticalAlign=middle;resizable=0;points=[];autosize=1;strokeColor=none;fillColor=none;labelBorderColor=none;fontStyle=0;fontColor=#030303;" parent="1" vertex="1">
                    <mxGeometry x="248.5" y="1860" width="250" height="70" as="geometry"/>
                </mxCell>
                <mxCell id="335" value="T" style="text;html=1;align=center;verticalAlign=middle;resizable=0;points=[];autosize=1;strokeColor=none;fillColor=none;fontSize=23;fontColor=#030303;" parent="1" vertex="1">
                    <mxGeometry x="200" y="1900" width="40" height="40" as="geometry"/>
                </mxCell>
                <mxCell id="336" value="" style="line;strokeWidth=2;html=1;labelBorderColor=none;fontSize=23;fillColor=default;strokeColor=#030202;direction=south;" parent="1" vertex="1">
                    <mxGeometry x="356" y="1950" width="10" height="100" as="geometry"/>
                </mxCell>
                <mxCell id="339" value="" style="line;strokeWidth=2;html=1;labelBorderColor=none;fontSize=23;fillColor=default;strokeColor=#030202;" parent="1" vertex="1">
                    <mxGeometry x="160" y="2045" width="428" height="10" as="geometry"/>
                </mxCell>
                <mxCell id="340" value="不做处理" style="text;html=1;align=center;verticalAlign=middle;resizable=0;points=[];autosize=1;strokeColor=none;fillColor=none;fontSize=23;fontColor=#030303;" parent="1" vertex="1">
                    <mxGeometry x="413.53999999999996" y="1975" width="120" height="40" as="geometry"/>
                </mxCell>
                <mxCell id="341" style="edgeStyle=none;html=1;exitX=0;exitY=0.25;exitDx=0;exitDy=0;entryX=0.625;entryY=0.8;entryDx=0;entryDy=0;entryPerimeter=0;strokeColor=#030303;fontSize=23;fontColor=#030303;endArrow=none;endFill=0;" parent="1" source="342" target="359" edge="1">
                    <mxGeometry relative="1" as="geometry"/>
                </mxCell>
                <mxCell id="342" value="" style="rounded=0;whiteSpace=wrap;html=1;fillColor=#f9f7ed;strokeColor=#36393d;" parent="1" vertex="1">
                    <mxGeometry x="861" y="1730" width="529" height="610" as="geometry"/>
                </mxCell>
                <mxCell id="343" value="&lt;span style=&quot;font-size: 23px;&quot;&gt;查看当前报道病人&lt;/span&gt;" style="text;html=1;align=center;verticalAlign=middle;resizable=0;points=[];autosize=1;strokeColor=none;fillColor=none;labelBorderColor=none;fontStyle=0;fontColor=#030303;" parent="1" vertex="1">
                    <mxGeometry x="1020.5" y="1750" width="210" height="40" as="geometry"/>
                </mxCell>
                <mxCell id="344" value="" style="shape=stencil(fZbdcgIhDIWfZm8zQAg/17Z9j85U606tdqz9e/tmZ0c0uJ47xP0I5JwEBl59bp8/1kNwn6fj4W39M76ctgM/DCGM++36OJ50NPDjwKvN4bh+PR6+9i/z74/n6ctp9H74nlb4nbmSKZeJCu5vngmZ6jzzNAO7cX8FVKEsBuBKrgKg9oAE8gkCbLeUhEoEQKSUDZDLeWYRKIl8MEDRmHwfyBrBG6Amyu4+kDxxMoB3jhwgYu7TVAsVkFcWCs4CTBEoF4RctKeOxHIf8IXYpikHikAIf+MNUW94AGSSaoAoFIE3AlOyeWU+p2E5S9yfQZcQILVuQOwZdJNoS9Ls3wA5u2XZTIHECqeJ9kDpSaauRiNVcAY1QhdBzeLBli5WazpkSsBLV25uRaqWRyFawTQzRRIQYirJzq5atkBqLfouwqUxLBepthWb10vrWZY6UOAeyKCCtDV625mm9gmUC4Wc3VLJMMIE1BsA2FW9JraVlQB7n3c9oMKhCLEvIM1zBPZ25/umNQ1tVEC2G+fFCC8g398O2hNQuQlVu752DBfA+q0ptnqO5JFmeuIuo9DY7KjY71UxdJV4EntifPWorW++R/dC4t7V3DlIB5cHx2bc7eb3yvX//QNFp+bHDT/+Aw==);lineShape=1;labelBorderColor=none;fontSize=23;fontColor=#030303;" parent="1" vertex="1">
                    <mxGeometry x="1119.867960842476" y="1914.8753124585194" width="4.672539772115215" height="4.665236216357243" as="geometry"/>
                </mxCell>
                <mxCell id="345" value="" style="line;strokeWidth=2;html=1;labelBorderColor=none;fontSize=23;fillColor=default;strokeColor=#030202;" parent="1" vertex="1">
                    <mxGeometry x="861" y="1800" width="475" height="10" as="geometry"/>
                </mxCell>
                <mxCell id="346" value="" style="line;strokeWidth=2;html=1;labelBorderColor=none;fontSize=23;fillColor=default;strokeColor=#030202;direction=south;" parent="1" vertex="1">
                    <mxGeometry x="1330" y="1730" width="10" height="484" as="geometry"/>
                </mxCell>
                <mxCell id="348" value="" style="line;strokeWidth=2;html=1;labelBorderColor=none;fontSize=23;fillColor=default;strokeColor=#030202;" parent="1" vertex="1">
                    <mxGeometry x="860" y="1860" width="473" height="10" as="geometry"/>
                </mxCell>
                <mxCell id="350" value="" style="line;strokeWidth=2;html=1;labelBorderColor=none;fontSize=23;fillColor=default;strokeColor=#030202;direction=south;" parent="1" vertex="1">
                    <mxGeometry x="1281" y="1867" width="10" height="278" as="geometry"/>
                </mxCell>
                <mxCell id="353" value="" style="line;strokeWidth=2;html=1;labelBorderColor=none;fontSize=23;fillColor=default;strokeColor=#030202;" parent="1" vertex="1">
                    <mxGeometry x="860" y="2210" width="476" height="10" as="geometry"/>
                </mxCell>
                <mxCell id="354" value="是最后一名病人？" style="text;html=1;align=center;verticalAlign=middle;resizable=0;points=[];autosize=1;strokeColor=none;fillColor=none;fontSize=23;fontColor=#030303;" parent="1" vertex="1">
                    <mxGeometry x="1030" y="2226" width="210" height="40" as="geometry"/>
                </mxCell>
                <mxCell id="355" value="&lt;span style=&quot;font-size: 23px;&quot;&gt;查看病人对应流程&lt;/span&gt;" style="text;html=1;align=center;verticalAlign=middle;resizable=0;points=[];autosize=1;strokeColor=none;fillColor=none;labelBorderColor=none;fontStyle=0;fontColor=#030303;" parent="1" vertex="1">
                    <mxGeometry x="993.5" y="1820" width="210" height="40" as="geometry"/>
                </mxCell>
                <mxCell id="356" value="是最后一个诊疗室？" style="text;html=1;align=center;verticalAlign=middle;resizable=0;points=[];autosize=1;strokeColor=none;fillColor=none;fontSize=23;fontColor=#030303;" parent="1" vertex="1">
                    <mxGeometry x="1055" y="2093" width="230" height="40" as="geometry"/>
                </mxCell>
                <mxCell id="357" value="" style="line;strokeWidth=2;html=1;labelBorderColor=none;fontSize=23;fillColor=default;strokeColor=#030202;" parent="1" vertex="1">
                    <mxGeometry x="851.2" y="2275" width="540" height="10" as="geometry"/>
                </mxCell>
                <mxCell id="358" value="结束" style="text;html=1;align=center;verticalAlign=middle;resizable=0;points=[];autosize=1;strokeColor=none;fillColor=none;fontSize=23;fontColor=#030303;" parent="1" vertex="1">
                    <mxGeometry x="1100" y="2290" width="70" height="40" as="geometry"/>
                </mxCell>
                <mxCell id="370" style="edgeStyle=none;html=1;exitX=0.886;exitY=0.633;exitDx=0;exitDy=0;exitPerimeter=0;entryX=0.576;entryY=0.633;entryDx=0;entryDy=0;entryPerimeter=0;strokeColor=#030303;fontSize=23;fontColor=#030303;endArrow=none;endFill=0;" parent="1" source="359" target="369" edge="1">
                    <mxGeometry relative="1" as="geometry"/>
                </mxCell>
                <mxCell id="371" style="edgeStyle=none;html=1;exitX=0;exitY=0.5;exitDx=0;exitDy=0;exitPerimeter=0;entryX=0.359;entryY=0.633;entryDx=0;entryDy=0;entryPerimeter=0;strokeColor=#030303;fontSize=23;fontColor=#030303;endArrow=none;endFill=0;" parent="1" source="359" target="369" edge="1">
                    <mxGeometry relative="1" as="geometry"/>
                </mxCell>
                <mxCell id="359" value="" style="line;strokeWidth=2;html=1;labelBorderColor=none;fontSize=23;fillColor=default;strokeColor=#030202;" parent="1" vertex="1">
                    <mxGeometry x="862" y="1940" width="427" height="10" as="geometry"/>
                </mxCell>
                <mxCell id="360" value="&lt;span style=&quot;font-size: 23px;&quot;&gt;查看当前项目可用&lt;br&gt;诊疗室&lt;/span&gt;" style="text;html=1;align=center;verticalAlign=middle;resizable=0;points=[];autosize=1;strokeColor=none;fillColor=none;labelBorderColor=none;fontStyle=0;fontColor=#030303;" parent="1" vertex="1">
                    <mxGeometry x="968.5" y="1870" width="210" height="70" as="geometry"/>
                </mxCell>
                <mxCell id="365" value="该诊疗室超&lt;br&gt;载了么" style="text;html=1;align=center;verticalAlign=middle;resizable=0;points=[];autosize=1;strokeColor=none;fillColor=none;fontSize=23;fontColor=#030303;" parent="1" vertex="1">
                    <mxGeometry x="979.87" y="1945" width="140" height="70" as="geometry"/>
                </mxCell>
                <mxCell id="366" value="分配项目到&lt;br&gt;诊疗室" style="text;html=1;align=center;verticalAlign=middle;resizable=0;points=[];autosize=1;strokeColor=none;fillColor=none;fontSize=23;fontColor=#030303;" parent="1" vertex="1">
                    <mxGeometry x="881.2" y="2015.5" width="140" height="70" as="geometry"/>
                </mxCell>
                <mxCell id="367" value="是最后一个项目么？" style="text;html=1;align=center;verticalAlign=middle;resizable=0;points=[];autosize=1;strokeColor=none;fillColor=none;fontSize=23;fontColor=#030303;" parent="1" vertex="1">
                    <mxGeometry x="1020.5" y="2160" width="230" height="40" as="geometry"/>
                </mxCell>
                <mxCell id="368" value="" style="line;strokeWidth=2;html=1;labelBorderColor=none;fontSize=23;fillColor=default;strokeColor=#030202;" parent="1" vertex="1">
                    <mxGeometry x="862" y="2140" width="427" height="10" as="geometry"/>
                </mxCell>
                <mxCell id="369" value="" style="line;strokeWidth=2;html=1;labelBorderColor=none;fontSize=23;fillColor=default;strokeColor=#030202;" parent="1" vertex="1">
                    <mxGeometry x="861" y="2010" width="379" height="10" as="geometry"/>
                </mxCell>
                <mxCell id="372" value="T" style="text;html=1;align=center;verticalAlign=middle;resizable=0;points=[];autosize=1;strokeColor=none;fillColor=none;fontSize=23;fontColor=#030303;" parent="1" vertex="1">
                    <mxGeometry x="1178.5" y="1970" width="40" height="40" as="geometry"/>
                </mxCell>
                <mxCell id="373" value="F" style="text;html=1;align=center;verticalAlign=middle;resizable=0;points=[];autosize=1;strokeColor=none;fillColor=none;fontSize=23;fontColor=#030303;" parent="1" vertex="1">
                    <mxGeometry x="870" y="1970" width="40" height="40" as="geometry"/>
                </mxCell>
                <mxCell id="375" value="" style="line;strokeWidth=2;html=1;labelBorderColor=none;fontSize=23;fillColor=default;strokeColor=#030202;direction=south;" parent="1" vertex="1">
                    <mxGeometry x="1236" y="1944" width="10" height="145" as="geometry"/>
                </mxCell>
                <mxCell id="376" value="" style="line;strokeWidth=2;html=1;labelBorderColor=none;fontSize=23;fillColor=default;strokeColor=#030202;" parent="1" vertex="1">
                    <mxGeometry x="860" y="2083" width="381" height="10" as="geometry"/>
                </mxCell>
                <mxCell id="377" value="" style="line;strokeWidth=2;html=1;labelBorderColor=none;fontSize=23;fillColor=default;strokeColor=#030202;direction=south;" parent="1" vertex="1">
                    <mxGeometry x="1040" y="2015.5" width="10" height="74.5" as="geometry"/>
                </mxCell>
                <mxCell id="378" value="不做处理" style="text;html=1;align=center;verticalAlign=middle;resizable=0;points=[];autosize=1;strokeColor=none;fillColor=none;fontSize=23;fontColor=#030303;" parent="1" vertex="1">
                    <mxGeometry x="1085" y="2030.5" width="120" height="40" as="geometry"/>
                </mxCell>
                <mxCell id="379" value="" style="rounded=0;whiteSpace=wrap;html=1;fillColor=#f9f7ed;strokeColor=#36393d;" parent="1" vertex="1">
                    <mxGeometry x="1595" y="1745" width="540" height="505" as="geometry"/>
                </mxCell>
                <mxCell id="380" value="&lt;span style=&quot;font-size: 23px;&quot;&gt;新增流程&lt;/span&gt;" style="text;html=1;align=center;verticalAlign=middle;resizable=0;points=[];autosize=1;strokeColor=none;fillColor=none;labelBorderColor=none;fontStyle=0;fontColor=#030303;" parent="1" vertex="1">
                    <mxGeometry x="1810" y="1770" width="120" height="40" as="geometry"/>
                </mxCell>
                <mxCell id="381" value="" style="shape=stencil(fZbdcgIhDIWfZm8zQAg/17Z9j85U606tdqz9e/tmZ0c0uJ47xP0I5JwEBl59bp8/1kNwn6fj4W39M76ctgM/DCGM++36OJ50NPDjwKvN4bh+PR6+9i/z74/n6ctp9H74nlb4nbmSKZeJCu5vngmZ6jzzNAO7cX8FVKEsBuBKrgKg9oAE8gkCbLeUhEoEQKSUDZDLeWYRKIl8MEDRmHwfyBrBG6Amyu4+kDxxMoB3jhwgYu7TVAsVkFcWCs4CTBEoF4RctKeOxHIf8IXYpikHikAIf+MNUW94AGSSaoAoFIE3AlOyeWU+p2E5S9yfQZcQILVuQOwZdJNoS9Ls3wA5u2XZTIHECqeJ9kDpSaauRiNVcAY1QhdBzeLBli5WazpkSsBLV25uRaqWRyFawTQzRRIQYirJzq5atkBqLfouwqUxLBepthWb10vrWZY6UOAeyKCCtDV625mm9gmUC4Wc3VLJMMIE1BsA2FW9JraVlQB7n3c9oMKhCLEvIM1zBPZ25/umNQ1tVEC2G+fFCC8g398O2hNQuQlVu752DBfA+q0ptnqO5JFmeuIuo9DY7KjY71UxdJV4EntifPWorW++R/dC4t7V3DlIB5cHx2bc7eb3yvX//QNFp+bHDT/+Aw==);lineShape=1;labelBorderColor=none;fontSize=23;fontColor=#030303;" parent="1" vertex="1">
                    <mxGeometry x="1853.867960842476" y="2009.8753124585194" width="4.672539772115215" height="4.665236216357243" as="geometry"/>
                </mxCell>
                <mxCell id="382" value="添加项目到流程里" style="text;html=1;align=center;verticalAlign=middle;resizable=0;points=[];autosize=1;strokeColor=none;fillColor=none;fontSize=23;fontColor=#030303;" parent="1" vertex="1">
                    <mxGeometry x="1740" y="1905" width="210" height="40" as="geometry"/>
                </mxCell>
                <mxCell id="389" value="" style="line;strokeWidth=2;html=1;labelBorderColor=none;fontSize=23;fillColor=default;strokeColor=#030202;" parent="1" vertex="1">
                    <mxGeometry x="1595" y="1830" width="540" height="10" as="geometry"/>
                </mxCell>
                <mxCell id="392" value="" style="line;strokeWidth=2;html=1;labelBorderColor=none;fontSize=23;fillColor=default;strokeColor=#030202;" parent="1" vertex="1">
                    <mxGeometry x="1593.5" y="2002" width="457.5" height="10" as="geometry"/>
                </mxCell>
                <mxCell id="394" value="" style="line;strokeWidth=2;html=1;labelBorderColor=none;fontSize=23;fillColor=default;strokeColor=#030202;direction=south;" parent="1" vertex="1">
                    <mxGeometry x="2047.5" y="1837" width="10" height="173" as="geometry"/>
                </mxCell>
                <mxCell id="401" value="" style="line;strokeWidth=2;html=1;labelBorderColor=none;fontSize=23;fillColor=default;strokeColor=#030202;" parent="1" vertex="1">
                    <mxGeometry x="1595" y="2120" width="540" height="10" as="geometry"/>
                </mxCell>
                <mxCell id="403" value="结束" style="text;html=1;align=center;verticalAlign=middle;resizable=0;points=[];autosize=1;strokeColor=none;fillColor=none;fontSize=23;fontColor=#030303;" parent="1" vertex="1">
                    <mxGeometry x="1840" y="2170" width="70" height="40" as="geometry"/>
                </mxCell>
                <mxCell id="404" value="是最后一个项目么？" style="text;html=1;align=center;verticalAlign=middle;resizable=0;points=[];autosize=1;strokeColor=none;fillColor=none;fontSize=23;fontColor=#030303;" parent="1" vertex="1">
                    <mxGeometry x="1755" y="2060" width="230" height="40" as="geometry"/>
                </mxCell>
                <mxCell id="445" value="" style="rounded=0;whiteSpace=wrap;html=1;fillColor=#f9f7ed;strokeColor=#36393d;" parent="1" vertex="1">
                    <mxGeometry x="2300" y="1750" width="400" height="310" as="geometry"/>
                </mxCell>
                <mxCell id="446" value="&lt;span style=&quot;font-size: 23px;&quot;&gt;查询特定流程&lt;/span&gt;" style="text;html=1;align=center;verticalAlign=middle;resizable=0;points=[];autosize=1;strokeColor=none;fillColor=none;labelBorderColor=none;fontStyle=0;fontColor=#030303;" parent="1" vertex="1">
                    <mxGeometry x="2420" y="1760" width="160" height="40" as="geometry"/>
                </mxCell>
                <mxCell id="447" value="" style="shape=stencil(fZbdcgIhDIWfZm8zQAg/17Z9j85U606tdqz9e/tmZ0c0uJ47xP0I5JwEBl59bp8/1kNwn6fj4W39M76ctgM/DCGM++36OJ50NPDjwKvN4bh+PR6+9i/z74/n6ctp9H74nlb4nbmSKZeJCu5vngmZ6jzzNAO7cX8FVKEsBuBKrgKg9oAE8gkCbLeUhEoEQKSUDZDLeWYRKIl8MEDRmHwfyBrBG6Amyu4+kDxxMoB3jhwgYu7TVAsVkFcWCs4CTBEoF4RctKeOxHIf8IXYpikHikAIf+MNUW94AGSSaoAoFIE3AlOyeWU+p2E5S9yfQZcQILVuQOwZdJNoS9Ls3wA5u2XZTIHECqeJ9kDpSaauRiNVcAY1QhdBzeLBli5WazpkSsBLV25uRaqWRyFawTQzRRIQYirJzq5atkBqLfouwqUxLBepthWb10vrWZY6UOAeyKCCtDV625mm9gmUC4Wc3VLJMMIE1BsA2FW9JraVlQB7n3c9oMKhCLEvIM1zBPZ25/umNQ1tVEC2G+fFCC8g398O2hNQuQlVu752DBfA+q0ptnqO5JFmeuIuo9DY7KjY71UxdJV4EntifPWorW++R/dC4t7V3DlIB5cHx2bc7eb3yvX//QNFp+bHDT/+Aw==);lineShape=1;labelBorderColor=none;fontSize=23;fontColor=#030303;" parent="1" vertex="1">
                    <mxGeometry x="2558.867960842476" y="2014.8753124585194" width="4.672539772115215" height="4.665236216357243" as="geometry"/>
                </mxCell>
                <mxCell id="448" value="该流程存在么" style="text;html=1;align=center;verticalAlign=middle;resizable=0;points=[];autosize=1;strokeColor=none;fillColor=none;fontSize=23;fontColor=#030303;" parent="1" vertex="1">
                    <mxGeometry x="2420" y="1830" width="160" height="40" as="geometry"/>
                </mxCell>
                <mxCell id="449" value="T" style="text;html=1;align=center;verticalAlign=middle;resizable=0;points=[];autosize=1;strokeColor=none;fillColor=none;fontSize=23;fontColor=#030303;" parent="1" vertex="1">
                    <mxGeometry x="2320" y="1840" width="40" height="40" as="geometry"/>
                </mxCell>
                <mxCell id="450" value="F" style="text;html=1;align=center;verticalAlign=middle;resizable=0;points=[];autosize=1;strokeColor=none;fillColor=none;fontSize=23;fontColor=#030303;" parent="1" vertex="1">
                    <mxGeometry x="2640" y="1840" width="40" height="40" as="geometry"/>
                </mxCell>
                <mxCell id="451" value="删除该流程" style="text;html=1;align=center;verticalAlign=middle;resizable=0;points=[];autosize=1;strokeColor=none;fillColor=none;fontSize=23;fontColor=#030303;" parent="1" vertex="1">
                    <mxGeometry x="2320" y="1920" width="140" height="40" as="geometry"/>
                </mxCell>
                <mxCell id="452" value="结束" style="text;html=1;align=center;verticalAlign=middle;resizable=0;points=[];autosize=1;strokeColor=none;fillColor=none;fontSize=23;fontColor=#030303;" parent="1" vertex="1">
                    <mxGeometry x="2460" y="2000" width="70" height="40" as="geometry"/>
                </mxCell>
                <mxCell id="453" style="edgeStyle=none;html=1;exitX=0;exitY=0.5;exitDx=0;exitDy=0;exitPerimeter=0;entryX=0.493;entryY=0.6;entryDx=0;entryDy=0;entryPerimeter=0;strokeColor=#030303;fontSize=23;fontColor=#030303;endArrow=none;endFill=0;" parent="1" source="455" target="456" edge="1">
                    <mxGeometry relative="1" as="geometry"/>
                </mxCell>
                <mxCell id="454" style="edgeStyle=none;html=1;exitX=1;exitY=0.5;exitDx=0;exitDy=0;exitPerimeter=0;entryX=0.485;entryY=0.5;entryDx=0;entryDy=0;entryPerimeter=0;strokeColor=#030303;fontSize=23;fontColor=#030303;endArrow=none;endFill=0;" parent="1" source="455" target="456" edge="1">
                    <mxGeometry relative="1" as="geometry"/>
                </mxCell>
                <mxCell id="455" value="" style="line;strokeWidth=2;html=1;labelBorderColor=none;fontSize=23;fillColor=default;strokeColor=#030202;" parent="1" vertex="1">
                    <mxGeometry x="2300" y="1810" width="400" height="10" as="geometry"/>
                </mxCell>
                <mxCell id="456" value="" style="line;strokeWidth=2;html=1;labelBorderColor=none;fontSize=23;fillColor=default;strokeColor=#030202;" parent="1" vertex="1">
                    <mxGeometry x="2300" y="1890" width="400" height="10" as="geometry"/>
                </mxCell>
                <mxCell id="457" value="" style="line;strokeWidth=2;html=1;labelBorderColor=none;fontSize=23;fillColor=default;strokeColor=#030202;" parent="1" vertex="1">
                    <mxGeometry x="2300" y="1970" width="400" height="10" as="geometry"/>
                </mxCell>
                <mxCell id="458" value="" style="line;strokeWidth=2;html=1;labelBorderColor=none;fontSize=23;fillColor=default;strokeColor=#030202;direction=south;" parent="1" vertex="1">
                    <mxGeometry x="2490" y="1893" width="10" height="84" as="geometry"/>
                </mxCell>
                <mxCell id="459" value="不做处理" style="text;html=1;align=center;verticalAlign=middle;resizable=0;points=[];autosize=1;strokeColor=none;fillColor=none;fontSize=23;fontColor=#030303;" parent="1" vertex="1">
                    <mxGeometry x="2520" y="1915" width="120" height="40" as="geometry"/>
                </mxCell>
                <mxCell id="460" value="" style="rounded=0;whiteSpace=wrap;html=1;fillColor=#f9f7ed;strokeColor=#36393d;" parent="1" vertex="1">
                    <mxGeometry x="2850" y="1750" width="400" height="310" as="geometry"/>
                </mxCell>
                <mxCell id="461" value="&lt;span style=&quot;font-size: 23px;&quot;&gt;查询特定流程&lt;/span&gt;" style="text;html=1;align=center;verticalAlign=middle;resizable=0;points=[];autosize=1;strokeColor=none;fillColor=none;labelBorderColor=none;fontStyle=0;fontColor=#030303;" parent="1" vertex="1">
                    <mxGeometry x="2970" y="1760" width="160" height="40" as="geometry"/>
                </mxCell>
                <mxCell id="462" value="" style="shape=stencil(fZbdcgIhDIWfZm8zQAg/17Z9j85U606tdqz9e/tmZ0c0uJ47xP0I5JwEBl59bp8/1kNwn6fj4W39M76ctgM/DCGM++36OJ50NPDjwKvN4bh+PR6+9i/z74/n6ctp9H74nlb4nbmSKZeJCu5vngmZ6jzzNAO7cX8FVKEsBuBKrgKg9oAE8gkCbLeUhEoEQKSUDZDLeWYRKIl8MEDRmHwfyBrBG6Amyu4+kDxxMoB3jhwgYu7TVAsVkFcWCs4CTBEoF4RctKeOxHIf8IXYpikHikAIf+MNUW94AGSSaoAoFIE3AlOyeWU+p2E5S9yfQZcQILVuQOwZdJNoS9Ls3wA5u2XZTIHECqeJ9kDpSaauRiNVcAY1QhdBzeLBli5WazpkSsBLV25uRaqWRyFawTQzRRIQYirJzq5atkBqLfouwqUxLBepthWb10vrWZY6UOAeyKCCtDV625mm9gmUC4Wc3VLJMMIE1BsA2FW9JraVlQB7n3c9oMKhCLEvIM1zBPZ25/umNQ1tVEC2G+fFCC8g398O2hNQuQlVu752DBfA+q0ptnqO5JFmeuIuo9DY7KjY71UxdJV4EntifPWorW++R/dC4t7V3DlIB5cHx2bc7eb3yvX//QNFp+bHDT/+Aw==);lineShape=1;labelBorderColor=none;fontSize=23;fontColor=#030303;" parent="1" vertex="1">
                    <mxGeometry x="3108.867960842476" y="2014.8753124585194" width="4.672539772115215" height="4.665236216357243" as="geometry"/>
                </mxCell>
                <mxCell id="463" value="该流程存在么" style="text;html=1;align=center;verticalAlign=middle;resizable=0;points=[];autosize=1;strokeColor=none;fillColor=none;fontSize=23;fontColor=#030303;" parent="1" vertex="1">
                    <mxGeometry x="2970" y="1830" width="160" height="40" as="geometry"/>
                </mxCell>
                <mxCell id="464" value="T" style="text;html=1;align=center;verticalAlign=middle;resizable=0;points=[];autosize=1;strokeColor=none;fillColor=none;fontSize=23;fontColor=#030303;" parent="1" vertex="1">
                    <mxGeometry x="2870" y="1840" width="40" height="40" as="geometry"/>
                </mxCell>
                <mxCell id="465" value="F" style="text;html=1;align=center;verticalAlign=middle;resizable=0;points=[];autosize=1;strokeColor=none;fillColor=none;fontSize=23;fontColor=#030303;" parent="1" vertex="1">
                    <mxGeometry x="3190" y="1840" width="40" height="40" as="geometry"/>
                </mxCell>
                <mxCell id="466" value="修改该流程" style="text;html=1;align=center;verticalAlign=middle;resizable=0;points=[];autosize=1;strokeColor=none;fillColor=none;fontSize=23;fontColor=#030303;" parent="1" vertex="1">
                    <mxGeometry x="2870" y="1920" width="140" height="40" as="geometry"/>
                </mxCell>
                <mxCell id="467" value="结束" style="text;html=1;align=center;verticalAlign=middle;resizable=0;points=[];autosize=1;strokeColor=none;fillColor=none;fontSize=23;fontColor=#030303;" parent="1" vertex="1">
                    <mxGeometry x="3010" y="2000" width="70" height="40" as="geometry"/>
                </mxCell>
                <mxCell id="468" style="edgeStyle=none;html=1;exitX=0;exitY=0.5;exitDx=0;exitDy=0;exitPerimeter=0;entryX=0.493;entryY=0.6;entryDx=0;entryDy=0;entryPerimeter=0;strokeColor=#030303;fontSize=23;fontColor=#030303;endArrow=none;endFill=0;" parent="1" source="470" target="471" edge="1">
                    <mxGeometry relative="1" as="geometry"/>
                </mxCell>
                <mxCell id="469" style="edgeStyle=none;html=1;exitX=1;exitY=0.5;exitDx=0;exitDy=0;exitPerimeter=0;entryX=0.485;entryY=0.5;entryDx=0;entryDy=0;entryPerimeter=0;strokeColor=#030303;fontSize=23;fontColor=#030303;endArrow=none;endFill=0;" parent="1" source="470" target="471" edge="1">
                    <mxGeometry relative="1" as="geometry"/>
                </mxCell>
                <mxCell id="470" value="" style="line;strokeWidth=2;html=1;labelBorderColor=none;fontSize=23;fillColor=default;strokeColor=#030202;" parent="1" vertex="1">
                    <mxGeometry x="2850" y="1810" width="400" height="10" as="geometry"/>
                </mxCell>
                <mxCell id="471" value="" style="line;strokeWidth=2;html=1;labelBorderColor=none;fontSize=23;fillColor=default;strokeColor=#030202;" parent="1" vertex="1">
                    <mxGeometry x="2850" y="1890" width="400" height="10" as="geometry"/>
                </mxCell>
                <mxCell id="472" value="" style="line;strokeWidth=2;html=1;labelBorderColor=none;fontSize=23;fillColor=default;strokeColor=#030202;" parent="1" vertex="1">
                    <mxGeometry x="2850" y="1970" width="400" height="10" as="geometry"/>
                </mxCell>
                <mxCell id="473" value="" style="line;strokeWidth=2;html=1;labelBorderColor=none;fontSize=23;fillColor=default;strokeColor=#030202;direction=south;" parent="1" vertex="1">
                    <mxGeometry x="3040" y="1893" width="10" height="84" as="geometry"/>
                </mxCell>
                <mxCell id="474" value="不做处理" style="text;html=1;align=center;verticalAlign=middle;resizable=0;points=[];autosize=1;strokeColor=none;fillColor=none;fontSize=23;fontColor=#030303;" parent="1" vertex="1">
                    <mxGeometry x="3070" y="1915" width="120" height="40" as="geometry"/>
                </mxCell>
                <mxCell id="475" value="" style="rounded=0;whiteSpace=wrap;html=1;fillColor=#f9f7ed;strokeColor=#36393d;" parent="1" vertex="1">
                    <mxGeometry x="162" y="2700" width="400" height="310" as="geometry"/>
                </mxCell>
                <mxCell id="476" value="&lt;span style=&quot;font-size: 23px;&quot;&gt;用户报道&lt;/span&gt;" style="text;html=1;align=center;verticalAlign=middle;resizable=0;points=[];autosize=1;strokeColor=none;fillColor=none;labelBorderColor=none;fontStyle=0;fontColor=#030303;" parent="1" vertex="1">
                    <mxGeometry x="302" y="2710" width="120" height="40" as="geometry"/>
                </mxCell>
                <mxCell id="477" value="" style="shape=stencil(fZbdcgIhDIWfZm8zQAg/17Z9j85U606tdqz9e/tmZ0c0uJ47xP0I5JwEBl59bp8/1kNwn6fj4W39M76ctgM/DCGM++36OJ50NPDjwKvN4bh+PR6+9i/z74/n6ctp9H74nlb4nbmSKZeJCu5vngmZ6jzzNAO7cX8FVKEsBuBKrgKg9oAE8gkCbLeUhEoEQKSUDZDLeWYRKIl8MEDRmHwfyBrBG6Amyu4+kDxxMoB3jhwgYu7TVAsVkFcWCs4CTBEoF4RctKeOxHIf8IXYpikHikAIf+MNUW94AGSSaoAoFIE3AlOyeWU+p2E5S9yfQZcQILVuQOwZdJNoS9Ls3wA5u2XZTIHECqeJ9kDpSaauRiNVcAY1QhdBzeLBli5WazpkSsBLV25uRaqWRyFawTQzRRIQYirJzq5atkBqLfouwqUxLBepthWb10vrWZY6UOAeyKCCtDV625mm9gmUC4Wc3VLJMMIE1BsA2FW9JraVlQB7n3c9oMKhCLEvIM1zBPZ25/umNQ1tVEC2G+fFCC8g398O2hNQuQlVu752DBfA+q0ptnqO5JFmeuIuo9DY7KjY71UxdJV4EntifPWorW++R/dC4t7V3DlIB5cHx2bc7eb3yvX//QNFp+bHDT/+Aw==);lineShape=1;labelBorderColor=none;fontSize=23;fontColor=#030303;" parent="1" vertex="1">
                    <mxGeometry x="420.8679608424759" y="2964.875312458519" width="4.672539772115215" height="4.665236216357243" as="geometry"/>
                </mxCell>
                <mxCell id="478" value="该用户是医生么" style="text;html=1;align=center;verticalAlign=middle;resizable=0;points=[];autosize=1;strokeColor=none;fillColor=none;fontSize=23;fontColor=#030303;" parent="1" vertex="1">
                    <mxGeometry x="272" y="2780" width="180" height="40" as="geometry"/>
                </mxCell>
                <mxCell id="479" value="T" style="text;html=1;align=center;verticalAlign=middle;resizable=0;points=[];autosize=1;strokeColor=none;fillColor=none;fontSize=23;fontColor=#030303;" parent="1" vertex="1">
                    <mxGeometry x="182" y="2790" width="40" height="40" as="geometry"/>
                </mxCell>
                <mxCell id="480" value="F" style="text;html=1;align=center;verticalAlign=middle;resizable=0;points=[];autosize=1;strokeColor=none;fillColor=none;fontSize=23;fontColor=#030303;" parent="1" vertex="1">
                    <mxGeometry x="502" y="2790" width="40" height="40" as="geometry"/>
                </mxCell>
                <mxCell id="481" value="把用户存入当天&lt;br&gt;报道的医生列表" style="text;html=1;align=center;verticalAlign=middle;resizable=0;points=[];autosize=1;strokeColor=none;fillColor=none;fontSize=23;fontColor=#030303;" parent="1" vertex="1">
                    <mxGeometry x="162" y="2855" width="180" height="70" as="geometry"/>
                </mxCell>
                <mxCell id="482" value="结束" style="text;html=1;align=center;verticalAlign=middle;resizable=0;points=[];autosize=1;strokeColor=none;fillColor=none;fontSize=23;fontColor=#030303;" parent="1" vertex="1">
                    <mxGeometry x="322" y="2950" width="70" height="40" as="geometry"/>
                </mxCell>
                <mxCell id="483" style="edgeStyle=none;html=1;exitX=0;exitY=0.5;exitDx=0;exitDy=0;exitPerimeter=0;entryX=0.493;entryY=0.6;entryDx=0;entryDy=0;entryPerimeter=0;strokeColor=#030303;fontSize=23;fontColor=#030303;endArrow=none;endFill=0;" parent="1" source="485" target="486" edge="1">
                    <mxGeometry relative="1" as="geometry"/>
                </mxCell>
                <mxCell id="484" style="edgeStyle=none;html=1;exitX=1;exitY=0.5;exitDx=0;exitDy=0;exitPerimeter=0;entryX=0.485;entryY=0.5;entryDx=0;entryDy=0;entryPerimeter=0;strokeColor=#030303;fontSize=23;fontColor=#030303;endArrow=none;endFill=0;" parent="1" source="485" target="486" edge="1">
                    <mxGeometry relative="1" as="geometry"/>
                </mxCell>
                <mxCell id="485" value="" style="line;strokeWidth=2;html=1;labelBorderColor=none;fontSize=23;fillColor=default;strokeColor=#030202;" parent="1" vertex="1">
                    <mxGeometry x="162" y="2760" width="400" height="10" as="geometry"/>
                </mxCell>
                <mxCell id="486" value="" style="line;strokeWidth=2;html=1;labelBorderColor=none;fontSize=23;fillColor=default;strokeColor=#030202;" parent="1" vertex="1">
                    <mxGeometry x="162" y="2840" width="400" height="10" as="geometry"/>
                </mxCell>
                <mxCell id="487" value="" style="line;strokeWidth=2;html=1;labelBorderColor=none;fontSize=23;fillColor=default;strokeColor=#030202;" parent="1" vertex="1">
                    <mxGeometry x="162" y="2920" width="400" height="10" as="geometry"/>
                </mxCell>
                <mxCell id="488" value="" style="line;strokeWidth=2;html=1;labelBorderColor=none;fontSize=23;fillColor=default;strokeColor=#030202;direction=south;" parent="1" vertex="1">
                    <mxGeometry x="352" y="2843" width="10" height="84" as="geometry"/>
                </mxCell>
                <mxCell id="489" value="把用户存入当天&lt;br&gt;报道的病人列表" style="text;html=1;align=center;verticalAlign=middle;resizable=0;points=[];autosize=1;strokeColor=none;fillColor=none;fontSize=23;fontColor=#030303;" parent="1" vertex="1">
                    <mxGeometry x="360" y="2855" width="180" height="70" as="geometry"/>
                </mxCell>
                <mxCell id="490" value="" style="rounded=0;whiteSpace=wrap;html=1;fillColor=#f9f7ed;strokeColor=#36393d;" parent="1" vertex="1">
                    <mxGeometry x="851.2" y="2690" width="478.8" height="380" as="geometry"/>
                </mxCell>
                <mxCell id="491" value="&lt;span style=&quot;font-size: 23px;&quot;&gt;用户填入登录信息&lt;/span&gt;" style="text;html=1;align=center;verticalAlign=middle;resizable=0;points=[];autosize=1;strokeColor=none;fillColor=none;labelBorderColor=none;fontStyle=0;fontColor=#030303;" parent="1" vertex="1">
                    <mxGeometry x="985.6" y="2700" width="210" height="40" as="geometry"/>
                </mxCell>
                <mxCell id="492" value="" style="shape=stencil(fZbdcgIhDIWfZm8zQAg/17Z9j85U606tdqz9e/tmZ0c0uJ47xP0I5JwEBl59bp8/1kNwn6fj4W39M76ctgM/DCGM++36OJ50NPDjwKvN4bh+PR6+9i/z74/n6ctp9H74nlb4nbmSKZeJCu5vngmZ6jzzNAO7cX8FVKEsBuBKrgKg9oAE8gkCbLeUhEoEQKSUDZDLeWYRKIl8MEDRmHwfyBrBG6Amyu4+kDxxMoB3jhwgYu7TVAsVkFcWCs4CTBEoF4RctKeOxHIf8IXYpikHikAIf+MNUW94AGSSaoAoFIE3AlOyeWU+p2E5S9yfQZcQILVuQOwZdJNoS9Ls3wA5u2XZTIHECqeJ9kDpSaauRiNVcAY1QhdBzeLBli5WazpkSsBLV25uRaqWRyFawTQzRRIQYirJzq5atkBqLfouwqUxLBepthWb10vrWZY6UOAeyKCCtDV625mm9gmUC4Wc3VLJMMIE1BsA2FW9JraVlQB7n3c9oMKhCLEvIM1zBPZ25/umNQ1tVEC2G+fFCC8g398O2hNQuQlVu752DBfA+q0ptnqO5JFmeuIuo9DY7KjY71UxdJV4EntifPWorW++R/dC4t7V3DlIB5cHx2bc7eb3yvX//QNFp+bHDT/+Aw==);lineShape=1;labelBorderColor=none;fontSize=23;fontColor=#030303;" parent="1" vertex="1">
                    <mxGeometry x="1110.067960842476" y="2954.875312458519" width="4.672539772115215" height="4.665236216357243" as="geometry"/>
                </mxCell>
                <mxCell id="493" value="信息合法么" style="text;html=1;align=center;verticalAlign=middle;resizable=0;points=[];autosize=1;strokeColor=none;fillColor=none;fontSize=23;fontColor=#030303;" parent="1" vertex="1">
                    <mxGeometry x="1020" y="2770" width="140" height="40" as="geometry"/>
                </mxCell>
                <mxCell id="494" value="T" style="text;html=1;align=center;verticalAlign=middle;resizable=0;points=[];autosize=1;strokeColor=none;fillColor=none;fontSize=23;fontColor=#030303;" parent="1" vertex="1">
                    <mxGeometry x="892" y="2780" width="40" height="40" as="geometry"/>
                </mxCell>
                <mxCell id="495" value="F" style="text;html=1;align=center;verticalAlign=middle;resizable=0;points=[];autosize=1;strokeColor=none;fillColor=none;fontSize=23;fontColor=#030303;" parent="1" vertex="1">
                    <mxGeometry x="1251.2" y="2780" width="40" height="40" as="geometry"/>
                </mxCell>
                <mxCell id="496" value="是否已经存在&lt;br&gt;同样信息的用户" style="text;html=1;align=center;verticalAlign=middle;resizable=0;points=[];autosize=1;strokeColor=none;fillColor=none;fontSize=23;fontColor=#030303;" parent="1" vertex="1">
                    <mxGeometry x="902" y="2835" width="180" height="70" as="geometry"/>
                </mxCell>
                <mxCell id="497" value="结束" style="text;html=1;align=center;verticalAlign=middle;resizable=0;points=[];autosize=1;strokeColor=none;fillColor=none;fontSize=23;fontColor=#030303;" parent="1" vertex="1">
                    <mxGeometry x="1060" y="3020" width="70" height="40" as="geometry"/>
                </mxCell>
                <mxCell id="498" style="edgeStyle=none;html=1;exitX=0;exitY=0.5;exitDx=0;exitDy=0;exitPerimeter=0;entryX=0.62;entryY=0.886;entryDx=0;entryDy=0;entryPerimeter=0;strokeColor=#030303;fontSize=23;fontColor=#030303;endArrow=none;endFill=0;" parent="1" source="500" target="501" edge="1">
                    <mxGeometry relative="1" as="geometry"/>
                </mxCell>
                <mxCell id="499" style="edgeStyle=none;html=1;exitX=1;exitY=0.5;exitDx=0;exitDy=0;exitPerimeter=0;entryX=0.611;entryY=0.743;entryDx=0;entryDy=0;entryPerimeter=0;strokeColor=#030303;fontSize=23;fontColor=#030303;endArrow=none;endFill=0;" parent="1" source="500" target="501" edge="1">
                    <mxGeometry relative="1" as="geometry">
                        <Array as="points"/>
                    </mxGeometry>
                </mxCell>
                <mxCell id="500" value="" style="line;strokeWidth=2;html=1;labelBorderColor=none;fontSize=23;fillColor=default;strokeColor=#030202;" parent="1" vertex="1">
                    <mxGeometry x="851.2" y="2750" width="478.8" height="10" as="geometry"/>
                </mxCell>
                <mxCell id="524" style="edgeStyle=none;html=1;exitX=0;exitY=0.5;exitDx=0;exitDy=0;exitPerimeter=0;entryX=0.25;entryY=0.5;entryDx=0;entryDy=0;entryPerimeter=0;strokeColor=#030303;fontSize=23;fontColor=#030303;endArrow=none;endFill=0;" parent="1" source="501" target="502" edge="1">
                    <mxGeometry relative="1" as="geometry"/>
                </mxCell>
                <mxCell id="501" value="" style="line;strokeWidth=2;html=1;labelBorderColor=none;fontSize=23;fillColor=default;strokeColor=#030202;" parent="1" vertex="1">
                    <mxGeometry x="851.2" y="2830" width="478.8" height="10" as="geometry"/>
                </mxCell>
                <mxCell id="525" style="edgeStyle=none;html=1;exitX=0.75;exitY=0.5;exitDx=0;exitDy=0;exitPerimeter=0;entryX=0;entryY=0.5;entryDx=0;entryDy=0;entryPerimeter=0;strokeColor=#030303;fontSize=23;fontColor=#030303;endArrow=none;endFill=0;" parent="1" source="502" target="503" edge="1">
                    <mxGeometry relative="1" as="geometry"/>
                </mxCell>
                <mxCell id="502" value="" style="line;strokeWidth=2;html=1;labelBorderColor=none;fontSize=23;fillColor=default;strokeColor=#030202;" parent="1" vertex="1">
                    <mxGeometry x="851.2" y="2910" width="292" height="10" as="geometry"/>
                </mxCell>
                <mxCell id="503" value="" style="line;strokeWidth=2;html=1;labelBorderColor=none;fontSize=23;fillColor=default;strokeColor=#030202;direction=south;" parent="1" vertex="1">
                    <mxGeometry x="1139.5" y="2835" width="10" height="172" as="geometry"/>
                </mxCell>
                <mxCell id="504" value="不做处理" style="text;html=1;align=center;verticalAlign=middle;resizable=0;points=[];autosize=1;strokeColor=none;fillColor=none;fontSize=23;fontColor=#030303;" parent="1" vertex="1">
                    <mxGeometry x="1181" y="2901" width="120" height="40" as="geometry"/>
                </mxCell>
                <mxCell id="505" value="" style="rounded=0;whiteSpace=wrap;html=1;fillColor=#f9f7ed;strokeColor=#36393d;" parent="1" vertex="1">
                    <mxGeometry x="1562" y="2700" width="400" height="310" as="geometry"/>
                </mxCell>
                <mxCell id="506" value="&lt;span style=&quot;font-size: 23px;&quot;&gt;用户填入登录所需信息&lt;/span&gt;" style="text;html=1;align=center;verticalAlign=middle;resizable=0;points=[];autosize=1;strokeColor=none;fillColor=none;labelBorderColor=none;fontStyle=0;fontColor=#030303;" parent="1" vertex="1">
                    <mxGeometry x="1637" y="2710" width="250" height="40" as="geometry"/>
                </mxCell>
                <mxCell id="507" value="" style="shape=stencil(fZbdcgIhDIWfZm8zQAg/17Z9j85U606tdqz9e/tmZ0c0uJ47xP0I5JwEBl59bp8/1kNwn6fj4W39M76ctgM/DCGM++36OJ50NPDjwKvN4bh+PR6+9i/z74/n6ctp9H74nlb4nbmSKZeJCu5vngmZ6jzzNAO7cX8FVKEsBuBKrgKg9oAE8gkCbLeUhEoEQKSUDZDLeWYRKIl8MEDRmHwfyBrBG6Amyu4+kDxxMoB3jhwgYu7TVAsVkFcWCs4CTBEoF4RctKeOxHIf8IXYpikHikAIf+MNUW94AGSSaoAoFIE3AlOyeWU+p2E5S9yfQZcQILVuQOwZdJNoS9Ls3wA5u2XZTIHECqeJ9kDpSaauRiNVcAY1QhdBzeLBli5WazpkSsBLV25uRaqWRyFawTQzRRIQYirJzq5atkBqLfouwqUxLBepthWb10vrWZY6UOAeyKCCtDV625mm9gmUC4Wc3VLJMMIE1BsA2FW9JraVlQB7n3c9oMKhCLEvIM1zBPZ25/umNQ1tVEC2G+fFCC8g398O2hNQuQlVu752DBfA+q0ptnqO5JFmeuIuo9DY7KjY71UxdJV4EntifPWorW++R/dC4t7V3DlIB5cHx2bc7eb3yvX//QNFp+bHDT/+Aw==);lineShape=1;labelBorderColor=none;fontSize=23;fontColor=#030303;" parent="1" vertex="1">
                    <mxGeometry x="1820.867960842476" y="2964.875312458519" width="4.672539772115215" height="4.665236216357243" as="geometry"/>
                </mxCell>
                <mxCell id="508" value="信息合法么" style="text;html=1;align=center;verticalAlign=middle;resizable=0;points=[];autosize=1;strokeColor=none;fillColor=none;fontSize=23;fontColor=#030303;" parent="1" vertex="1">
                    <mxGeometry x="1692" y="2780" width="140" height="40" as="geometry"/>
                </mxCell>
                <mxCell id="509" value="T" style="text;html=1;align=center;verticalAlign=middle;resizable=0;points=[];autosize=1;strokeColor=none;fillColor=none;fontSize=23;fontColor=#030303;" parent="1" vertex="1">
                    <mxGeometry x="1582" y="2790" width="40" height="40" as="geometry"/>
                </mxCell>
                <mxCell id="510" value="F" style="text;html=1;align=center;verticalAlign=middle;resizable=0;points=[];autosize=1;strokeColor=none;fillColor=none;fontSize=23;fontColor=#030303;" parent="1" vertex="1">
                    <mxGeometry x="1902" y="2790" width="40" height="40" as="geometry"/>
                </mxCell>
                <mxCell id="511" value="用户登录成功" style="text;html=1;align=center;verticalAlign=middle;resizable=0;points=[];autosize=1;strokeColor=none;fillColor=none;fontSize=23;fontColor=#030303;" parent="1" vertex="1">
                    <mxGeometry x="1572" y="2870" width="160" height="40" as="geometry"/>
                </mxCell>
                <mxCell id="512" value="结束" style="text;html=1;align=center;verticalAlign=middle;resizable=0;points=[];autosize=1;strokeColor=none;fillColor=none;fontSize=23;fontColor=#030303;" parent="1" vertex="1">
                    <mxGeometry x="1722" y="2950" width="70" height="40" as="geometry"/>
                </mxCell>
                <mxCell id="513" style="edgeStyle=none;html=1;exitX=0;exitY=0.5;exitDx=0;exitDy=0;exitPerimeter=0;entryX=0.493;entryY=0.6;entryDx=0;entryDy=0;entryPerimeter=0;strokeColor=#030303;fontSize=23;fontColor=#030303;endArrow=none;endFill=0;" parent="1" source="515" target="516" edge="1">
                    <mxGeometry relative="1" as="geometry"/>
                </mxCell>
                <mxCell id="514" style="edgeStyle=none;html=1;exitX=1;exitY=0.5;exitDx=0;exitDy=0;exitPerimeter=0;entryX=0.485;entryY=0.5;entryDx=0;entryDy=0;entryPerimeter=0;strokeColor=#030303;fontSize=23;fontColor=#030303;endArrow=none;endFill=0;" parent="1" source="515" target="516" edge="1">
                    <mxGeometry relative="1" as="geometry"/>
                </mxCell>
                <mxCell id="515" value="" style="line;strokeWidth=2;html=1;labelBorderColor=none;fontSize=23;fillColor=default;strokeColor=#030202;" parent="1" vertex="1">
                    <mxGeometry x="1562" y="2760" width="400" height="10" as="geometry"/>
                </mxCell>
                <mxCell id="516" value="" style="line;strokeWidth=2;html=1;labelBorderColor=none;fontSize=23;fillColor=default;strokeColor=#030202;" parent="1" vertex="1">
                    <mxGeometry x="1562" y="2840" width="400" height="10" as="geometry"/>
                </mxCell>
                <mxCell id="517" value="" style="line;strokeWidth=2;html=1;labelBorderColor=none;fontSize=23;fillColor=default;strokeColor=#030202;" parent="1" vertex="1">
                    <mxGeometry x="1562" y="2920" width="400" height="10" as="geometry"/>
                </mxCell>
                <mxCell id="518" value="" style="line;strokeWidth=2;html=1;labelBorderColor=none;fontSize=23;fillColor=default;strokeColor=#030202;direction=south;" parent="1" vertex="1">
                    <mxGeometry x="1752" y="2843" width="10" height="84" as="geometry"/>
                </mxCell>
                <mxCell id="519" value="不做处理" style="text;html=1;align=center;verticalAlign=middle;resizable=0;points=[];autosize=1;strokeColor=none;fillColor=none;fontSize=23;fontColor=#030303;" parent="1" vertex="1">
                    <mxGeometry x="1782" y="2865" width="120" height="40" as="geometry"/>
                </mxCell>
                <mxCell id="526" value="T" style="text;html=1;align=center;verticalAlign=middle;resizable=0;points=[];autosize=1;strokeColor=none;fillColor=none;fontSize=23;fontColor=#030303;" parent="1" vertex="1">
                    <mxGeometry x="846" y="2870" width="40" height="40" as="geometry"/>
                </mxCell>
                <mxCell id="527" value="F" style="text;html=1;align=center;verticalAlign=middle;resizable=0;points=[];autosize=1;strokeColor=none;fillColor=none;fontSize=23;fontColor=#030303;" parent="1" vertex="1">
                    <mxGeometry x="1102" y="2870" width="40" height="40" as="geometry"/>
                </mxCell>
                <mxCell id="529" value="" style="line;strokeWidth=2;html=1;labelBorderColor=none;fontSize=23;fillColor=default;strokeColor=#030202;" parent="1" vertex="1">
                    <mxGeometry x="851.2" y="3000" width="478.8" height="10" as="geometry"/>
                </mxCell>
                <mxCell id="530" value="" style="line;strokeWidth=2;html=1;labelBorderColor=none;fontSize=23;fillColor=default;strokeColor=#030202;direction=south;" parent="1" vertex="1">
                    <mxGeometry x="996.5" y="2917" width="10" height="90" as="geometry"/>
                </mxCell>
                <mxCell id="531" value="不做处理" style="text;html=1;align=center;verticalAlign=middle;resizable=0;points=[];autosize=1;strokeColor=none;fillColor=none;fontSize=23;fontColor=#030303;" parent="1" vertex="1">
                    <mxGeometry x="1013.5" y="2947.21" width="120" height="40" as="geometry"/>
                </mxCell>
                <mxCell id="532" value="注册一个&lt;br&gt;新用户" style="text;html=1;align=center;verticalAlign=middle;resizable=0;points=[];autosize=1;strokeColor=none;fillColor=none;fontSize=23;fontColor=#030303;" parent="1" vertex="1">
                    <mxGeometry x="865.6" y="2932.21" width="120" height="70" as="geometry"/>
                </mxCell>
                <mxCell id="533" value="&lt;h1&gt;医生模块&lt;/h1&gt;" style="text;html=1;align=center;verticalAlign=middle;resizable=0;points=[];autosize=1;strokeColor=none;fillColor=none;" parent="1" vertex="1">
                    <mxGeometry x="40" y="810" width="120" height="70" as="geometry"/>
                </mxCell>
                <mxCell id="534" value="&lt;h1&gt;用户模块&lt;/h1&gt;" style="text;html=1;align=center;verticalAlign=middle;resizable=0;points=[];autosize=1;strokeColor=none;fillColor=none;" parent="1" vertex="1">
                    <mxGeometry x="30" y="2560" width="120" height="70" as="geometry"/>
                </mxCell>
                <mxCell id="535" value="&lt;font color=&quot;#ffffff&quot;&gt;查询流程&lt;/font&gt;" style="text;html=1;align=center;verticalAlign=middle;resizable=0;points=[];autosize=1;strokeColor=none;fillColor=none;fontSize=23;fontColor=#030303;" parent="1" vertex="1">
                    <mxGeometry x="170" y="440" width="120" height="40" as="geometry"/>
                </mxCell>
                <mxCell id="537" value="&lt;font color=&quot;#ffffff&quot;&gt;病人确定项目开始&lt;/font&gt;&lt;span style=&quot;color: rgba(0, 0, 0, 0); font-family: monospace; font-size: 0px; text-align: start;&quot;&gt;%3CmxGraphModel%3E%3Croot%3E%3CmxCell%20id%3D%220%22%2F%3E%3CmxCell%20id%3D%221%22%20parent%3D%220%22%2F%3E%3CmxCell%20id%3D%222%22%20value%3D%22%26lt%3Bfont%20color%3D%26quot%3B%23ffffff%26quot%3B%26gt%3B%E6%9F%A5%E8%AF%A2%E6%B5%81%E7%A8%8B%26lt%3B%2Ffont%26gt%3B%22%20style%3D%22text%3Bhtml%3D1%3Balign%3Dcenter%3BverticalAlign%3Dmiddle%3Bresizable%3D0%3Bpoints%3D%5B%5D%3Bautosize%3D1%3BstrokeColor%3Dnone%3BfillColor%3Dnone%3BfontSize%3D23%3BfontColor%3D%23030303%3B%22%20vertex%3D%221%22%20parent%3D%221%22%3E%3CmxGeometry%20x%3D%22170%22%20y%3D%22440%22%20width%3D%22120%22%20height%3D%2240%22%20as%3D%22geometry%22%2F%3E%3C%2FmxCell%3E%3C%2Froot%3E%3C%2FmxGraphModel%3E&lt;/span&gt;" style="text;html=1;align=center;verticalAlign=middle;resizable=0;points=[];autosize=1;strokeColor=none;fillColor=none;fontSize=23;fontColor=#030303;" parent="1" vertex="1">
                    <mxGeometry x="686" y="670" width="210" height="40" as="geometry"/>
                </mxCell>
                <mxCell id="538" value="&lt;font color=&quot;#ffffff&quot;&gt;病人确定项目结束&lt;/font&gt;&lt;span style=&quot;color: rgba(0, 0, 0, 0); font-family: monospace; font-size: 0px; text-align: start;&quot;&gt;%3CmxGraphModel%3E%3Croot%3E%3CmxCell%20id%3D%220%22%2F%3E%3CmxCell%20id%3D%221%22%20parent%3D%220%22%2F%3E%3CmxCell%20id%3D%222%22%20value%3D%22%26lt%3Bfont%20color%3D%26quot%3B%23ffffff%26quot%3B%26gt%3B%E6%9F%A5%E8%AF%A2%E6%B5%81%E7%A8%8B%26lt%3B%2Ffont%26gt%3B%22%20style%3D%22text%3Bhtml%3D1%3Balign%3Dcenter%3BverticalAlign%3Dmiddle%3Bresizable%3D0%3Bpoints%3D%5B%5D%3Bautosize%3D1%3BstrokeColor%3Dnone%3BfillColor%3Dnone%3BfontSize%3D23%3BfontColor%3D%23030303%3B%22%20vertex%3D%221%22%20parent%3D%221%22%3E%3CmxGeometry%20x%3D%22170%22%20y%3D%22440%22%20width%3D%22120%22%20height%3D%2240%22%20as%3D%22geometry%22%2F%3E%3C%2FmxCell%3E%3C%2Froot%3E%3C%2FmxGraphModel%3E&lt;/span&gt;" style="text;html=1;align=center;verticalAlign=middle;resizable=0;points=[];autosize=1;strokeColor=none;fillColor=none;fontSize=23;fontColor=#030303;" parent="1" vertex="1">
                    <mxGeometry x="1360" y="680" width="210" height="40" as="geometry"/>
                </mxCell>
                <mxCell id="539" value="&lt;font color=&quot;#ffffff&quot;&gt;开始治疗项目&lt;/font&gt;" style="text;html=1;align=center;verticalAlign=middle;resizable=0;points=[];autosize=1;strokeColor=none;fillColor=none;fontSize=23;fontColor=#030303;" parent="1" vertex="1">
                    <mxGeometry x="171" y="1500" width="160" height="40" as="geometry"/>
                </mxCell>
                <mxCell id="540" value="&lt;font color=&quot;#ffffff&quot;&gt;结束治疗项目&lt;/font&gt;" style="text;html=1;align=center;verticalAlign=middle;resizable=0;points=[];autosize=1;strokeColor=none;fillColor=none;fontSize=23;fontColor=#030303;" parent="1" vertex="1">
                    <mxGeometry x="886" y="1500" width="160" height="40" as="geometry"/>
                </mxCell>
                <mxCell id="541" value="&lt;font color=&quot;#ffffff&quot;&gt;查询当前可开启治疗项目&lt;/font&gt;" style="text;html=1;align=center;verticalAlign=middle;resizable=0;points=[];autosize=1;strokeColor=none;fillColor=none;fontSize=23;fontColor=#030303;" parent="1" vertex="1">
                    <mxGeometry x="1545.54" y="1290" width="280" height="40" as="geometry"/>
                </mxCell>
                <mxCell id="542" value="&lt;font color=&quot;#ffffff&quot;&gt;查询病人治疗流程&lt;/font&gt;" style="text;html=1;align=center;verticalAlign=middle;resizable=0;points=[];autosize=1;strokeColor=none;fillColor=none;fontSize=23;fontColor=#030303;" parent="1" vertex="1">
                    <mxGeometry x="2130" y="1500" width="210" height="40" as="geometry"/>
                </mxCell>
                <mxCell id="543" value="&lt;font color=&quot;#ffffff&quot;&gt;医生排班&lt;/font&gt;" style="text;html=1;align=center;verticalAlign=middle;resizable=0;points=[];autosize=1;strokeColor=none;fillColor=none;fontSize=23;fontColor=#030303;" parent="1" vertex="1">
                    <mxGeometry x="190" y="2300" width="120" height="40" as="geometry"/>
                </mxCell>
                <mxCell id="544" value="&lt;font color=&quot;#ffffff&quot;&gt;诊疗室安排&lt;/font&gt;" style="text;html=1;align=center;verticalAlign=middle;resizable=0;points=[];autosize=1;strokeColor=none;fillColor=none;fontSize=23;fontColor=#030303;" parent="1" vertex="1">
                    <mxGeometry x="870" y="2380" width="140" height="40" as="geometry"/>
                </mxCell>
                <mxCell id="545" value="&lt;font color=&quot;#ffffff&quot;&gt;添加流程&lt;/font&gt;" style="text;html=1;align=center;verticalAlign=middle;resizable=0;points=[];autosize=1;strokeColor=none;fillColor=none;fontSize=23;fontColor=#030303;" parent="1" vertex="1">
                    <mxGeometry x="1632" y="2300" width="120" height="40" as="geometry"/>
                </mxCell>
                <mxCell id="546" value="&lt;font color=&quot;#ffffff&quot;&gt;删除流程&lt;/font&gt;" style="text;html=1;align=center;verticalAlign=middle;resizable=0;points=[];autosize=1;strokeColor=none;fillColor=none;fontSize=23;fontColor=#030303;" parent="1" vertex="1">
                    <mxGeometry x="2315" y="2100" width="120" height="40" as="geometry"/>
                </mxCell>
                <mxCell id="547" value="&lt;font color=&quot;#ffffff&quot;&gt;编辑流程&lt;/font&gt;" style="text;html=1;align=center;verticalAlign=middle;resizable=0;points=[];autosize=1;strokeColor=none;fillColor=none;fontSize=23;fontColor=#030303;" parent="1" vertex="1">
                    <mxGeometry x="2870" y="2110" width="120" height="40" as="geometry"/>
                </mxCell>
                <mxCell id="548" value="&lt;font color=&quot;#ffffff&quot;&gt;用户报道&lt;/font&gt;" style="text;html=1;align=center;verticalAlign=middle;resizable=0;points=[];autosize=1;strokeColor=none;fillColor=none;fontSize=23;fontColor=#030303;" parent="1" vertex="1">
                    <mxGeometry x="170" y="3050" width="120" height="40" as="geometry"/>
                </mxCell>
                <mxCell id="549" value="&lt;font color=&quot;#ffffff&quot;&gt;用户注册&lt;/font&gt;" style="text;html=1;align=center;verticalAlign=middle;resizable=0;points=[];autosize=1;strokeColor=none;fillColor=none;fontSize=23;fontColor=#030303;" parent="1" vertex="1">
                    <mxGeometry x="852" y="3100" width="120" height="40" as="geometry"/>
                </mxCell>
                <mxCell id="550" value="&lt;font color=&quot;#ffffff&quot;&gt;用户登录&lt;/font&gt;" style="text;html=1;align=center;verticalAlign=middle;resizable=0;points=[];autosize=1;strokeColor=none;fillColor=none;fontSize=23;fontColor=#030303;" parent="1" vertex="1">
                    <mxGeometry x="1555" y="3050" width="120" height="40" as="geometry"/>
                </mxCell>
            </root>
        </mxGraphModel>
    </diagram>
</mxfile>